<svg width="30" height="30" viewBox="0 0 30 30" fill="none" xmlns="http://www.w3.org/2000/svg">
<g id="Frame">
<path id="Vector" d="M8.21344 5.38125C8.21344 4.065 9.28266 3 10.5994 3H18.3464C18.9785 2.9995 19.5849 3.25009 20.0322 3.69665C20.4796 4.1432 20.7313 4.74916 20.7319 5.38125V5.38734H22.9036C23.2166 5.38704 23.5266 5.44838 23.8159 5.56789C24.1052 5.68739 24.3682 5.86271 24.5897 6.08383C24.8113 6.30494 24.9871 6.56754 25.1072 6.85661C25.2273 7.14568 25.2892 7.45558 25.2895 7.76859V15.4997C25.2895 15.6489 25.2302 15.7921 25.1247 15.8976C25.0192 16.0031 24.876 16.0624 24.7268 16.0624C24.5776 16.0624 24.4344 16.0031 24.3289 15.8976C24.2234 15.7921 24.1641 15.6489 24.1641 15.4997V7.76906C24.1634 7.43534 24.0303 7.11553 23.7939 6.87995C23.5576 6.64438 23.2373 6.51232 22.9036 6.51281H20.7216C20.6655 7.10372 20.3911 7.65249 19.9519 8.05178C19.5128 8.45108 18.9404 8.67219 18.3469 8.67188H10.5984C10.0047 8.67229 9.43208 8.4511 8.99278 8.05159C8.55349 7.65209 8.27909 7.10303 8.22328 6.51188H6.04125C5.70753 6.51138 5.38728 6.64344 5.15091 6.87902C4.91454 7.1146 4.7814 7.43441 4.78078 7.76813V24.5953C4.78103 24.7606 4.81383 24.9242 4.8773 25.0768C4.94078 25.2294 5.03369 25.368 5.15074 25.4847C5.26779 25.6014 5.40667 25.6939 5.55946 25.7569C5.71226 25.82 5.87597 25.8523 6.04125 25.852H15.1172C15.2664 25.852 15.4094 25.9113 15.5149 26.0168C15.6204 26.1223 15.6797 26.2653 15.6797 26.4145C15.6797 26.5637 15.6204 26.7068 15.5149 26.8123C15.4094 26.9178 15.2664 26.977 15.1172 26.977H6.04172C5.7287 26.9773 5.4187 26.9159 5.12941 26.7963C4.84013 26.6768 4.57723 26.5014 4.35571 26.2802C4.1342 26.0591 3.95842 25.7964 3.83841 25.5073C3.71839 25.2182 3.6565 24.9083 3.65625 24.5953V7.76859C3.65625 6.45188 4.725 5.38734 6.04172 5.38734H8.21344V5.38125ZM10.5994 4.125C10.4341 4.12469 10.2704 4.15694 10.1176 4.21991C9.96474 4.28287 9.82582 4.37532 9.70873 4.49198C9.59164 4.60863 9.49867 4.7472 9.43514 4.89979C9.3716 5.05237 9.33875 5.21597 9.33844 5.38125V6.29063C9.33868 6.45595 9.3715 6.6196 9.435 6.77223C9.49851 6.92487 9.59147 7.0635 9.70856 7.1802C9.82566 7.29691 9.9646 7.3894 10.1174 7.45239C10.2703 7.51539 10.4341 7.54765 10.5994 7.54734H18.3464C18.6801 7.54784 19.0004 7.41578 19.2368 7.1802C19.4731 6.94462 19.6063 6.62481 19.6069 6.29109V5.38172C19.6066 5.2164 19.5738 5.05275 19.5103 4.90011C19.4468 4.74747 19.3538 4.60885 19.2367 4.49214C19.1197 4.37544 18.9807 4.28295 18.8279 4.21995C18.675 4.15696 18.5113 4.12469 18.3459 4.125H10.5994ZM7.07437 12.2203C7.07437 12.0711 7.13364 11.9281 7.23913 11.8226C7.34462 11.7171 7.48769 11.6578 7.63687 11.6578H21.1945C21.2684 11.6578 21.3415 11.6724 21.4098 11.7006C21.478 11.7289 21.54 11.7703 21.5923 11.8226C21.6445 11.8748 21.6859 11.9368 21.7142 12.0051C21.7425 12.0733 21.757 12.1464 21.757 12.2203C21.757 12.2942 21.7425 12.3673 21.7142 12.4356C21.6859 12.5038 21.6445 12.5658 21.5923 12.6181C21.54 12.6703 21.478 12.7117 21.4098 12.74C21.3415 12.7683 21.2684 12.7828 21.1945 12.7828H7.63687C7.48769 12.7828 7.34462 12.7235 7.23913 12.6181C7.13364 12.5126 7.07437 12.3695 7.07437 12.2203ZM7.07437 16.7681C7.07437 16.6943 7.08892 16.6211 7.11719 16.5529C7.14546 16.4846 7.18689 16.4226 7.23913 16.3704C7.29136 16.3181 7.35337 16.2767 7.42162 16.2484C7.48986 16.2202 7.56301 16.2056 7.63687 16.2056H14.0039C14.1531 16.2056 14.2962 16.2649 14.4017 16.3704C14.5071 16.4759 14.5664 16.6189 14.5664 16.7681C14.5664 16.9173 14.5071 17.0604 14.4017 17.1659C14.2962 17.2714 14.1531 17.3306 14.0039 17.3306H7.63687C7.56301 17.3306 7.48986 17.3161 7.42162 17.2878C7.35337 17.2595 7.29136 17.2181 7.23913 17.1659C7.18689 17.1136 7.14546 17.0516 7.11719 16.9834C7.08892 16.9151 7.07437 16.842 7.07437 16.7681ZM7.09406 21.3155C7.09406 21.1663 7.15333 21.0232 7.25881 20.9177C7.3643 20.8122 7.50738 20.753 7.65656 20.753H12.4219C12.5711 20.753 12.7141 20.8122 12.8196 20.9177C12.9251 21.0232 12.9844 21.1663 12.9844 21.3155C12.9844 21.4647 12.9251 21.6077 12.8196 21.7132C12.7141 21.8187 12.5711 21.878 12.4219 21.878H7.65656C7.50738 21.878 7.3643 21.8187 7.25881 21.7132C7.15333 21.6077 7.09406 21.4647 7.09406 21.3155Z" fill="black"/>
<path id="Vector_2" d="M20.5908 16.7545L20.2463 17.6569C20.2163 17.7354 20.169 17.8063 20.108 17.8642C20.047 17.9222 19.9738 17.9657 19.8938 17.9915C19.5762 18.094 19.2741 18.2391 18.9956 18.4228C18.9255 18.4691 18.8459 18.4991 18.7627 18.5106C18.6795 18.5222 18.5947 18.5149 18.5147 18.4894L17.5903 18.195C17.3855 18.4069 17.1998 18.6375 17.0372 18.884L17.5294 19.7147C17.5725 19.7872 17.5987 19.8686 17.606 19.9526C17.6134 20.0367 17.6018 20.1213 17.572 20.2003C17.4549 20.5113 17.3807 20.8368 17.3517 21.1678C17.3442 21.2518 17.3179 21.333 17.2747 21.4055C17.2315 21.4779 17.1726 21.5398 17.1023 21.5864L16.2956 22.1226C16.3345 22.4184 16.4006 22.7053 16.4916 22.9814L17.4534 23.1159C17.6222 23.1394 17.7703 23.2378 17.858 23.3831C18.0295 23.669 18.2391 23.9306 18.48 24.1598C18.6038 24.2775 18.667 24.4448 18.6525 24.615L18.57 25.5778C18.8222 25.7292 19.0894 25.8581 19.3692 25.9622L20.0747 25.2956C20.1356 25.238 20.2087 25.1948 20.2885 25.1691C20.3683 25.1434 20.4528 25.1358 20.5359 25.147C20.8673 25.1916 21.2031 25.1916 21.5344 25.147C21.6175 25.1358 21.702 25.1434 21.7818 25.1691C21.8616 25.1948 21.9347 25.238 21.9956 25.2956L22.7011 25.9617C22.9809 25.8586 23.2481 25.7292 23.5003 25.5778L23.4178 24.615C23.4106 24.531 23.4224 24.4466 23.4523 24.3678C23.4821 24.289 23.5293 24.2179 23.5903 24.1598C23.8316 23.9302 24.0408 23.6691 24.2123 23.3836C24.2555 23.3116 24.3143 23.2502 24.3843 23.2039C24.4543 23.1576 24.5338 23.1275 24.6169 23.1159L25.5792 22.9814C25.6697 22.7053 25.7358 22.4184 25.7747 22.1226L24.9684 21.5864C24.8982 21.5398 24.8392 21.4779 24.7961 21.4055C24.7529 21.333 24.7266 21.2518 24.7191 21.1678C24.6899 20.8367 24.6156 20.5112 24.4983 20.2003C24.4684 20.1214 24.4567 20.0367 24.464 19.9527C24.4713 19.8686 24.4975 19.7873 24.5405 19.7147L25.0327 18.8845C24.8701 18.6381 24.6851 18.4073 24.48 18.195L23.5556 18.4894C23.4756 18.5149 23.3909 18.5223 23.3077 18.5109C23.2244 18.4994 23.1448 18.4695 23.0747 18.4233C22.7962 18.2394 22.4941 18.0942 22.1766 17.9915C22.0965 17.9657 22.0233 17.9222 21.9623 17.8642C21.9013 17.8063 21.8541 17.7354 21.8241 17.6569L21.4795 16.7545C21.1839 16.7274 20.8864 16.7274 20.5908 16.7545ZM20.0972 15.6834C20.7186 15.5844 21.3517 15.5844 21.9731 15.6834C22.0707 15.699 22.1624 15.74 22.2391 15.8023C22.3158 15.8646 22.3748 15.946 22.41 16.0383L22.7827 17.0133C23.018 17.1047 23.2448 17.2139 23.4605 17.339L24.4589 17.0208C24.5528 16.9909 24.6529 16.9863 24.7491 17.0072C24.8454 17.0282 24.9344 17.0741 25.0073 17.1403C25.4714 17.5608 25.868 18.0544 26.1792 18.6028C26.2281 18.689 26.2533 18.7866 26.2523 18.8857C26.2513 18.9848 26.2242 19.0819 26.1736 19.1672L25.6406 20.0648C25.7142 20.3006 25.77 20.5439 25.807 20.7933L26.678 21.3726C26.7603 21.4273 26.8268 21.5027 26.8708 21.5912C26.9147 21.6798 26.9346 21.7784 26.9283 21.877C26.8883 22.5042 26.7474 23.1209 26.5111 23.7033C26.474 23.7947 26.4135 23.8747 26.3356 23.9354C26.2578 23.996 26.1654 24.0351 26.0677 24.0487L25.0284 24.194C24.8878 24.4008 24.7308 24.5962 24.5606 24.7781L24.6497 25.8183C24.6581 25.9167 24.6404 26.0156 24.5985 26.1051C24.5565 26.1945 24.4917 26.2713 24.4106 26.3278C23.8937 26.6876 23.3223 26.9622 22.7184 27.1411C22.624 27.169 22.524 27.1717 22.4282 27.1488C22.3325 27.1259 22.2444 27.0783 22.1728 27.0108L21.4106 26.2912C21.1604 26.3105 20.909 26.3105 20.6588 26.2912L19.8966 27.0108C19.8249 27.0784 19.7368 27.126 19.6409 27.1489C19.5451 27.1718 19.4449 27.1691 19.3505 27.1411C18.7469 26.9621 18.1759 26.6875 17.6592 26.3278C17.5781 26.2713 17.5133 26.1945 17.4714 26.1051C17.4294 26.0156 17.4117 25.9167 17.4202 25.8183L17.5092 24.7781C17.3384 24.5958 17.182 24.4005 17.0414 24.194L16.0017 24.0487C15.904 24.0351 15.8116 23.996 15.7338 23.9354C15.6559 23.8747 15.5954 23.7947 15.5583 23.7033C15.3219 23.1209 15.1811 22.5042 15.1411 21.877C15.1348 21.7784 15.1547 21.6798 15.1986 21.5912C15.2425 21.5027 15.309 21.4273 15.3914 21.3726L16.2623 20.7933C16.2987 20.5465 16.3543 20.3029 16.4288 20.0648L15.8963 19.1672C15.8457 19.0818 15.8185 18.9846 15.8176 18.8854C15.8167 18.7862 15.8421 18.6886 15.8911 18.6023C16.2014 18.0557 16.5968 17.562 17.0625 17.1398C17.1355 17.0737 17.2246 17.0279 17.3208 17.007C17.4171 16.9861 17.5171 16.9909 17.6109 17.0208L18.6094 17.3395C18.825 17.2139 19.0519 17.1047 19.2872 17.0133L19.6598 16.0383C19.6951 15.946 19.754 15.8646 19.8307 15.8023C19.9074 15.74 19.9996 15.699 20.0972 15.6834ZM21.1134 19.8347C20.6897 19.8339 20.2829 20.0015 19.9827 20.3005C19.6824 20.5996 19.5132 21.0056 19.5122 21.4294C19.5133 21.8531 19.6827 22.2591 19.983 22.5581C20.2834 22.857 20.6901 23.0244 21.1139 23.0236C21.5377 23.0244 21.9445 22.857 22.2448 22.5581C22.5452 22.2591 22.7145 21.8531 22.7156 21.4294C22.7146 21.0055 22.5453 20.5994 22.245 20.3004C21.9446 20.0013 21.5373 19.8338 21.1134 19.8347ZM18.3872 21.4294C18.3872 19.9256 19.6097 18.7097 21.1139 18.7097C22.6181 18.7097 23.8406 19.9256 23.8406 21.4294C23.8406 22.9331 22.6181 24.1486 21.1139 24.1486C19.6097 24.1486 18.3872 22.9331 18.3872 21.4294Z" fill="#BE9C58"/>
</g>
</svg>
