<svg width="30" height="30" viewBox="0 0 30 30" fill="none" xmlns="http://www.w3.org/2000/svg">
<g id="Frame">
<path id="Vector" d="M3.07961 10.9764C3.07961 11.0104 3.09321 11.7448 3.84801 11.7448C4.60961 11.7448 4.61641 11.0036 4.61641 10.9764V6.1824C4.61641 5.278 5.35081 4.5436 6.25521 4.5436H11.056C11.09 4.5436 11.8244 4.53 11.8244 3.7752C11.8244 3.0136 11.0832 3.0068 11.056 3.0068H6.26201C4.50761 3.0068 3.07961 4.4348 3.07961 6.1892V10.9764ZM26.2676 11.7448C27.0292 11.7448 27.036 11.0036 27.036 10.9764V6.1824C27.036 4.428 25.608 3 23.8536 3H19.0596C19.0256 3 18.2912 3.0136 18.2912 3.7684C18.2912 4.53 19.0324 4.5368 19.0596 4.5368H23.8536C24.758 4.5368 25.4924 5.2712 25.4924 6.1756V10.9764C25.4924 11.0036 25.506 11.7448 26.2676 11.7448ZM3.84801 18.2116C3.08641 18.2116 3.07961 18.9528 3.07961 18.98V23.774C3.07961 25.5284 4.50761 26.9564 6.26201 26.9564H11.056C11.09 26.9564 11.8244 26.9428 11.8244 26.188C11.8244 25.4264 11.0832 25.4196 11.056 25.4196H6.26201C5.35761 25.4196 4.62321 24.6852 4.62321 23.7808V18.9868C4.62321 18.9528 4.60961 18.2116 3.84801 18.2116ZM27.036 18.98C27.036 18.946 27.0224 18.2116 26.2676 18.2116C25.506 18.2116 25.4992 18.9528 25.4992 18.98V23.774C25.4992 24.6784 24.7648 25.4128 23.8604 25.4128H19.0664C19.0324 25.4128 18.298 25.4264 18.298 26.1812C18.298 26.9428 19.0392 26.9496 19.0664 26.9496H23.8604C25.6148 26.9496 27.0428 25.5216 27.0428 23.7672V18.98H27.036Z" fill="black"/>
<path id="Vector_2" d="M21.4668 14H8.65561C8.23401 14 7.88721 14.3468 7.88721 14.7684C7.88721 15.19 8.23401 15.5368 8.65561 15.5368H21.46C21.8816 15.5368 22.2284 15.19 22.2284 14.7684C22.2284 14.3468 21.8884 14 21.4668 14Z" fill="#BE9C58"/>
</g>
</svg>
