<svg width="30" height="30" viewBox="0 0 30 30" fill="none" xmlns="http://www.w3.org/2000/svg">
<g id="Frame">
<path id="Vector" d="M14.9999 4.28572C15.316 4.28345 15.6292 4.34621 15.92 4.47007C16.2108 4.59394 16.4729 4.77627 16.6901 5.00572L25.1112 13.7786C25.7376 14.43 25.7891 15.0343 25.6432 15.3686C25.5561 15.5585 25.4148 15.7184 25.2369 15.8282C25.059 15.9381 24.8526 15.9928 24.6436 15.9857H22.9277V23.1429C22.9277 24.5657 21.911 25.7143 20.6626 25.7143H9.32865C8.08028 25.7143 7.06357 24.5614 7.06357 23.1429V16.02L5.80662 15.99H5.33902C5.13217 15.9896 4.92967 15.9306 4.75503 15.8198C4.58039 15.7091 4.44076 15.5511 4.35234 15.3643C4.20649 15.0429 4.26225 14.4386 4.88858 13.7871L13.3097 5.01857C13.5275 4.789 13.7895 4.60575 14.0799 4.47982C14.3704 4.35389 14.6833 4.28787 14.9999 4.28572V4.28572ZM14.9999 3C14.5111 3.00011 14.0273 3.09886 13.5777 3.29034C13.128 3.48181 12.7217 3.76207 12.3831 4.11429L3.96196 12.8914C2.89377 13.9971 2.85516 15.1629 3.17691 15.8914C3.35796 16.2972 3.65109 16.6429 4.02189 16.8881C4.39269 17.1333 4.82579 17.2677 5.27038 17.2757H5.77659V23.1429C5.77659 25.2857 7.36815 27 9.32865 27H20.6712C22.6274 27 24.2232 25.2857 24.2232 23.1429V17.2757H24.7166C25.1643 17.2694 25.6008 17.1348 25.9742 16.8879C26.3476 16.641 26.6422 16.2922 26.8229 15.8829C27.1447 15.1671 27.1061 14.0057 26.0422 12.8829L17.6168 4.12714C17.2807 3.7708 16.8751 3.48696 16.4251 3.29312C15.975 3.09927 15.49 2.99952 14.9999 3V3Z" fill="black"/>
<path id="Vector_2" d="M13.4365 11.9174C13.8566 12.3137 14.4044 12.5379 14.9756 12.547C15.2672 12.5549 15.5574 12.5033 15.8293 12.3952C16.1012 12.2871 16.3494 12.1247 16.5594 11.9174C16.9223 12.0702 17.259 12.2814 17.557 12.5428C17.4353 13.1328 17.5403 13.7481 17.8502 14.2608C18.1302 14.7821 18.5952 15.1733 19.149 15.3533C19.1816 15.5618 19.1979 15.7953 19.2182 16.0413C19.2148 16.2591 19.1971 16.4764 19.1653 16.6918C18.6306 16.8798 18.1787 17.2567 17.8909 17.7551C17.6021 18.2759 17.508 18.8864 17.6262 19.473C17.3176 19.7179 16.9829 19.9263 16.6287 20.0943C16.2077 19.693 15.6565 19.4657 15.0814 19.4563C14.4914 19.4502 13.922 19.6789 13.4935 20.0943C13.1136 19.9448 12.7611 19.7305 12.4511 19.4605C12.5686 18.8758 12.4738 18.2674 12.1845 17.7492C11.8951 17.231 11.4311 16.8387 10.8795 16.6459C10.8143 16.212 10.8143 15.7705 10.8795 15.3366C11.426 15.1479 11.8852 14.7594 12.1693 14.2454C12.4533 13.7313 12.5421 13.1281 12.4186 12.5512C12.7416 12.3003 13.0912 12.0877 13.4609 11.9174H13.4365ZM13.5301 11.0375C13.4659 11.0375 13.4023 11.0503 13.3428 11.0751C12.7652 11.3082 12.2256 11.6302 11.7427 12.0299C11.6614 12.0887 11.601 12.173 11.5709 12.2701C11.5407 12.3673 11.5424 12.4718 11.5757 12.5678C11.6367 12.7829 11.6555 13.0083 11.6311 13.2308C11.6066 13.4534 11.5394 13.6688 11.4332 13.8646C11.211 14.2273 10.8611 14.4886 10.456 14.5944C10.4316 14.5944 10.4316 14.5944 10.4072 14.6194C10.2637 14.6989 10.1536 14.8294 10.0977 14.9863V15.0113C10.0326 15.3407 9.99984 15.676 10 16.0121C10.0011 16.3421 10.0394 16.6709 10.114 16.992C10.1223 17.0916 10.1616 17.1859 10.2261 17.261C10.2906 17.336 10.3769 17.3879 10.4723 17.409H10.4967C10.7011 17.4614 10.8931 17.5557 11.061 17.686C11.2289 17.8163 11.3694 17.9801 11.474 18.1674C11.5786 18.3547 11.6451 18.5618 11.6696 18.7761C11.6941 18.9905 11.676 19.2076 11.6165 19.4146C11.581 19.506 11.5741 19.6065 11.5967 19.7021C11.6193 19.7977 11.6703 19.8837 11.7427 19.9484C12.2081 20.3992 12.7639 20.7407 13.3713 20.9491C13.3917 20.9491 13.4161 20.9741 13.465 20.9741H13.5383C13.6814 20.9698 13.8173 20.9085 13.9169 20.8032C14.0573 20.6401 14.2303 20.5098 14.4242 20.4213C14.6182 20.3328 14.8284 20.2881 15.0407 20.2903C15.2529 20.2994 15.4611 20.3516 15.6534 20.444C15.8456 20.5363 16.018 20.6669 16.1604 20.8282C16.2475 20.9251 16.3663 20.986 16.4943 20.9992C16.551 21.0029 16.6079 20.9943 16.6612 20.9741C17.239 20.7329 17.7773 20.4025 18.2573 19.9942C18.3403 19.937 18.4019 19.8527 18.4322 19.755C18.4625 19.6574 18.4597 19.5521 18.4243 19.4563C18.359 19.2481 18.3366 19.0282 18.3584 18.8106C18.3802 18.593 18.4458 18.3824 18.551 18.1921C18.6562 18.0017 18.7987 17.8357 18.9696 17.7045C19.1405 17.5733 19.336 17.4798 19.544 17.4298C19.5684 17.4298 19.5684 17.4298 19.5928 17.4048C19.738 17.3276 19.8488 17.1962 19.9023 17.0379V17.0128C19.9674 16.6834 20.0002 16.3482 20 16.0121C19.9839 15.6758 19.9431 15.3413 19.8778 15.0113C19.8696 14.9117 19.8303 14.8174 19.7658 14.7424C19.7013 14.6673 19.615 14.6154 19.5195 14.5944H19.4992C19.2941 14.5429 19.1014 14.4493 18.9327 14.3193C18.764 14.1893 18.6228 14.0256 18.5178 13.8381C18.4127 13.6505 18.3459 13.4431 18.3214 13.2283C18.297 13.0136 18.3153 12.796 18.3754 12.5887C18.4124 12.4982 18.421 12.3981 18.3998 12.3025C18.3786 12.2068 18.3288 12.1203 18.2573 12.055C17.7919 11.6042 17.2361 11.2627 16.6287 11.0542C16.5788 11.0251 16.5231 11.008 16.4658 11.0042C16.396 11.0067 16.3274 11.0239 16.2644 11.0548C16.2013 11.0856 16.1451 11.1294 16.0993 11.1835C15.9631 11.3516 15.7909 11.4854 15.596 11.5743C15.4011 11.6633 15.1888 11.705 14.9756 11.6964C14.7634 11.6873 14.5552 11.635 14.3629 11.5427C14.1707 11.4503 13.9983 11.3197 13.8559 11.1585C13.8132 11.1096 13.7612 11.0703 13.7031 11.0431C13.6449 11.0158 13.5819 11.0011 13.5179 11L13.5301 11.0375Z" fill="#BE9C58"/>
<path id="Vector_3" d="M15.0886 15.1442C15.2681 15.1404 15.4445 15.1907 15.595 15.2885C15.7454 15.3863 15.863 15.5271 15.9324 15.6926C16.0004 15.8555 16.0184 16.0349 15.9842 16.208C15.95 16.3812 15.8652 16.5402 15.7404 16.665C15.6156 16.7898 15.4565 16.8747 15.2834 16.9089C15.1103 16.9431 14.9309 16.925 14.768 16.857C14.6025 16.7876 14.4617 16.6701 14.3639 16.5196C14.2661 16.3691 14.2158 16.1927 14.2196 16.0133C14.2185 15.8966 14.2406 15.7809 14.2847 15.6729C14.3288 15.5649 14.3941 15.4668 14.4766 15.3843C14.559 15.3018 14.6572 15.2366 14.7652 15.1925C14.8732 15.1484 14.9889 15.1262 15.1055 15.1273L15.0886 15.1442ZM15.0886 14.3005C14.6827 14.2917 14.2863 14.4243 13.9674 14.6755C13.6484 14.9268 13.4267 15.2811 13.3402 15.6778C13.2537 16.0745 13.3078 16.4889 13.4931 16.8502C13.6785 17.2114 13.9837 17.497 14.3564 17.658C14.7291 17.8191 15.1462 17.8455 15.5363 17.7329C15.9264 17.6203 16.2653 17.3756 16.4948 17.0407C16.7244 16.7059 16.8305 16.3016 16.7948 15.8971C16.7592 15.4927 16.584 15.1132 16.2994 14.8236C15.9802 14.4969 15.5453 14.309 15.0886 14.3005V14.3005Z" fill="#BE9C58"/>
</g>
</svg>
