<svg width="30" height="30" viewBox="0 0 30 30" fill="none" xmlns="http://www.w3.org/2000/svg">
<g id="Frame">
<path id="Vector" d="M24.75 3H5.25001C4.00927 3 3 4.00525 3 5.24098V9.72292C3 10.9587 4.00927 11.9639 5.25001 11.9639H5.88281V24.759C5.88281 25.9948 6.89208 27 8.13282 27H21.8672C23.1079 27 24.1172 25.9948 24.1172 24.759V11.9639H24.75C25.9907 11.9639 27 10.9587 27 9.72289V5.24098C27 4.00525 25.9907 3 24.75 3ZM21.8672 25.506H8.13282C7.71972 25.506 7.38281 25.1711 7.38281 24.759V8.2282H22.6172V24.759C22.6172 25.1712 22.2803 25.506 21.8672 25.506ZM25.5 9.72292C25.5 10.1351 25.1631 10.4699 24.75 10.4699H24.1172V8.20487C24.4731 8.14652 24.75 7.85253 24.75 7.48122C24.75 7.06835 24.4145 6.73422 24 6.73422H6C5.58546 6.73422 5.24998 7.06832 5.24998 7.48122C5.24998 7.85253 5.52684 8.14652 5.88278 8.20487V10.4699H5.24998C4.83688 10.4699 4.49997 10.1351 4.49997 9.72289V5.24098C4.49997 4.82882 4.83688 4.49398 5.24998 4.49398H24.75C25.1631 4.49398 25.5 4.82882 25.5 5.24098V9.72292H25.5Z" fill="black"/>
<path id="Vector_2" d="M17.6969 11.2333L15 14.0469L12.303 11.2333C12.0048 10.9222 11.5218 10.9222 11.2236 11.2333C10.9255 11.5444 10.9255 12.0483 11.2236 12.3593L13.6567 14.8968H12.3597C11.9378 14.8968 11.5963 15.253 11.5963 15.6932C11.5963 16.1333 11.9377 16.4895 12.3597 16.4895H14.262V17.7571H12.3448C11.8901 17.7571 11.5204 18.1421 11.5204 18.6172C11.5204 19.0923 11.8901 19.4772 12.3448 19.4772H14.262V21.2037C14.262 21.6438 14.6034 22 15.0254 22C15.4473 22 15.7887 21.6438 15.7887 21.2037V19.4772H17.688C18.1427 19.4772 18.5125 19.0923 18.5125 18.6172C18.5125 18.142 18.1427 17.7571 17.688 17.7571H15.7887V16.4895H17.703C18.1249 16.4895 18.4663 16.1333 18.4663 15.6932C18.4663 15.253 18.1249 14.8968 17.703 14.8968H16.3433L18.7764 12.3593C19.0745 12.0483 19.0745 11.5444 18.7764 11.2333C18.4782 10.9222 17.9951 10.9222 17.6969 11.2333Z" fill="#BE9C58"/>
</g>
</svg>
