<svg width="24" height="24" viewBox="0 0 24 24" fill="none" xmlns="http://www.w3.org/2000/svg">
<g id="Frame">
<path id="Vector" d="M11.9955 12.0001C14.8395 12.0001 17.148 9.64811 17.148 6.74711C17.148 3.84611 14.8395 1.49561 11.9955 1.49561C9.15001 1.49561 6.84301 3.84611 6.84301 6.74711C6.84301 9.64811 9.14851 12.0001 11.9955 12.0001ZM19.0935 15.2776C17.916 13.9066 17.5185 13.4341 15.363 13.3081H8.63551C6.47851 13.4371 6.08251 13.9066 4.90801 15.2776C3.65701 16.6921 2.66101 18.4891 3.13201 20.7121C3.65701 22.1686 5.07001 22.5031 6.41101 22.5031H17.592C18.9315 22.5031 20.3475 22.1656 20.8725 20.7121C21.339 18.4891 20.3445 16.6936 19.0935 15.2776V15.2776Z" fill="#666666"/>
</g>
</svg>
