<svg width="26" height="26" viewBox="0 0 26 26" fill="none" xmlns="http://www.w3.org/2000/svg">
<g id="Frame">
<path id="Vector" d="M21.6667 8.12492V17.8749C21.6667 18.4496 21.4384 19.0007 21.0321 19.407C20.6257 19.8133 20.0746 20.0416 19.5 20.0416H6.50001C5.92537 20.0416 5.37427 19.8133 4.96795 19.407C4.56162 19.0007 4.33334 18.4496 4.33334 17.8749V8.12492C4.33334 7.55028 4.56162 6.99918 4.96795 6.59285C5.37427 6.18652 5.92537 5.95825 6.50001 5.95825H19.5C20.0746 5.95825 20.6257 6.18652 21.0321 6.59285C21.4384 6.99918 21.6667 7.55028 21.6667 8.12492V8.12492ZM16.25 9.74992C16.1064 9.74992 15.9686 9.80699 15.867 9.90857C15.7654 10.0102 15.7083 10.1479 15.7083 10.2916C15.7083 10.4352 15.7654 10.573 15.867 10.6746C15.9686 10.7762 16.1064 10.8333 16.25 10.8333H18.9583C19.102 10.8333 19.2398 10.7762 19.3414 10.6746C19.4429 10.573 19.5 10.4352 19.5 10.2916C19.5 10.1479 19.4429 10.0102 19.3414 9.90857C19.2398 9.80699 19.102 9.74992 18.9583 9.74992H16.25ZM16.25 12.4583C16.1064 12.4583 15.9686 12.5153 15.867 12.6169C15.7654 12.7185 15.7083 12.8563 15.7083 12.9999C15.7083 13.1436 15.7654 13.2814 15.867 13.3829C15.9686 13.4845 16.1064 13.5416 16.25 13.5416H18.9583C19.102 13.5416 19.2398 13.4845 19.3414 13.3829C19.4429 13.2814 19.5 13.1436 19.5 12.9999C19.5 12.8563 19.4429 12.7185 19.3414 12.6169C19.2398 12.5153 19.102 12.4583 18.9583 12.4583H16.25ZM16.25 15.1666C16.1064 15.1666 15.9686 15.2237 15.867 15.3252C15.7654 15.4268 15.7083 15.5646 15.7083 15.7083C15.7083 15.8519 15.7654 15.9897 15.867 16.0913C15.9686 16.1928 16.1064 16.2499 16.25 16.2499H18.9583C19.102 16.2499 19.2398 16.1928 19.3414 16.0913C19.4429 15.9897 19.5 15.8519 19.5 15.7083C19.5 15.5646 19.4429 15.4268 19.3414 15.3252C19.2398 15.2237 19.102 15.1666 18.9583 15.1666H16.25ZM10.2917 9.20825C9.8607 9.20825 9.44737 9.37946 9.14263 9.6842C8.83788 9.98895 8.66668 10.4023 8.66668 10.8333V11.9166C8.66668 12.3476 8.83788 12.7609 9.14263 13.0656C9.44737 13.3704 9.8607 13.5416 10.2917 13.5416C10.7227 13.5416 11.136 13.3704 11.4407 13.0656C11.7455 12.7609 11.9167 12.3476 11.9167 11.9166V10.8333C11.9167 10.4023 11.7455 9.98895 11.4407 9.6842C11.136 9.37946 10.7227 9.20825 10.2917 9.20825ZM8.46734 13.918C7.63318 14.281 6.94418 14.886 6.50001 15.6357V15.7083C6.50001 15.9956 6.61415 16.2711 6.81731 16.4743C7.02048 16.6774 7.29603 16.7916 7.58334 16.7916H13C13.2873 16.7916 13.5629 16.6774 13.766 16.4743C13.9692 16.2711 14.0833 15.9956 14.0833 15.7083V15.6357C13.6392 14.886 12.9496 14.2815 12.116 13.9186C11.6176 14.3739 10.9667 14.6259 10.2917 14.6249C9.61655 14.6258 8.96562 14.3736 8.46734 13.918Z" fill="#666666"/>
</g>
</svg>
