<svg width="22" height="22" viewBox="0 0 22 22" fill="none" xmlns="http://www.w3.org/2000/svg">
<g id="Frame">
<path id="Vector" d="M19.9019 18.2403C20.6352 16.9641 20.229 15.9839 18.9304 15.0032C17.4037 13.8502 15.9118 13.0747 14.839 14.317C14.839 14.317 13.7006 15.6722 10.3503 12.5008C6.45459 8.78718 8.08961 7.4701 8.08961 7.4701C9.44452 6.10795 8.58324 5.09177 7.4469 3.55276C6.31064 2.01377 5.16282 1.52667 3.51497 2.85028C0.339558 5.40103 4.81709 11.3902 7.08093 13.7191L7.08084 13.7192C7.08084 13.7192 10.5234 17.2801 12.6897 18.4655L13.8486 19.1135C15.5108 19.9665 17.3778 20.3569 18.6922 19.5649C18.6922 19.5649 19.3258 19.239 19.9019 18.2403Z" fill="#666666"/>
</g>
</svg>
