<svg width="34" height="34" viewBox="0 0 34 34" fill="none" xmlns="http://www.w3.org/2000/svg">
<g id="Frame">
<path id="Vector" d="M32.436 29.342C32.436 29.7726 32.3623 30.175 32.215 30.549C32.0677 30.923 31.858 31.2516 31.586 31.535C31.314 31.8183 30.9967 32.0393 30.634 32.198C30.2713 32.3566 29.8747 32.436 29.444 32.436H4.76C4.32933 32.436 3.92133 32.3566 3.536 32.198C3.15067 32.0393 2.81067 31.8183 2.516 31.535C2.22133 31.2516 1.989 30.923 1.819 30.549C1.649 30.175 1.564 29.7726 1.564 29.342V12.376C1.564 11.5146 1.86433 10.7836 2.465 10.183C3.06567 9.58232 3.79667 9.28198 4.658 9.28198H29.342C30.2033 9.28198 30.9343 9.58232 31.535 10.183C32.1357 10.7836 32.436 11.5146 32.436 12.376V17H24.718C23.8567 17 23.1257 17.2946 22.525 17.884C21.9243 18.4733 21.624 19.1986 21.624 20.06C21.6467 20.6493 21.7713 21.1706 21.998 21.624C22.1793 22.0093 22.4797 22.3606 22.899 22.678C23.3183 22.9953 23.9247 23.154 24.718 23.154H32.436V29.342ZM23.188 20.06C23.188 19.6293 23.3353 19.2666 23.63 18.972C23.9247 18.6773 24.2873 18.53 24.718 18.53C25.1487 18.53 25.5113 18.6773 25.806 18.972C26.1007 19.2666 26.248 19.6293 26.248 20.06C26.248 20.4906 26.1007 20.859 25.806 21.165C25.5113 21.471 25.1487 21.624 24.718 21.624C24.2873 21.624 23.9247 21.471 23.63 21.165C23.3353 20.859 23.188 20.4906 23.188 20.06Z" fill="#BF9E5A"/>
<path id="Vector_2" d="M12.4997 14C8.91531 14 6 16.9154 6 20.5C6 24.0846 8.91531 27 12.4997 27C16.0841 27 18.9994 24.0846 18.9994 20.5C19.0472 16.9154 16.1319 14 12.4997 14V14ZM15.8451 21.7904H12.5953C11.8784 21.7904 11.2571 21.2169 11.2571 20.4522V17.2022H12.882V20.1176H15.7974V21.7904H15.8451V21.7904Z" fill="url(#paint0_linear_369_1391)"/>
<path id="Vector_3" d="M12.376 8.08673H27.812L25.84 4.31273C25.4773 3.90473 25.0467 3.57606 24.548 3.32673C24.1173 3.1454 23.5903 3.03773 22.967 3.00373C22.3437 2.96973 21.6353 3.16806 20.842 3.59873C20.3207 3.87073 19.5953 4.25606 18.666 4.75473C17.7367 5.2534 16.796 5.75206 15.844 6.25073C14.756 6.84006 13.6 7.45206 12.376 8.08673Z" fill="#FBE09F"/>
</g>
<defs>
<linearGradient id="paint0_linear_369_1391" x1="8.3896" y1="14.7966" x2="15.5588" y2="25.9482" gradientUnits="userSpaceOnUse">
<stop stop-color="white"/>
<stop offset="1" stop-color="#F5E1BC"/>
</linearGradient>
</defs>
</svg>
