<svg width="36" height="34" viewBox="0 0 36 34" fill="none" xmlns="http://www.w3.org/2000/svg">
<g id="Frame">
<path id="Vector" d="M31.25 9.04688H4.25C3.65326 9.04688 3.08097 9.28393 2.65901 9.70588C2.23705 10.1278 2 10.7001 2 11.2969V30.4219C2 31.0186 2.23705 31.5909 2.65901 32.0129C3.08097 32.4348 3.65326 32.6719 4.25 32.6719H31.25C31.8467 32.6719 32.419 32.4348 32.841 32.0129C33.2629 31.5909 33.5 31.0186 33.5 30.4219V11.2969C33.5 10.7001 33.2629 10.1278 32.841 9.70588C32.419 9.28393 31.8467 9.04688 31.25 9.04688Z" fill="#BE9C58"/>
<path id="Vector_2" d="M18.8508 17.2188H26.6008C26.7154 17.2029 26.832 17.2138 26.9416 17.2506C27.0512 17.2873 27.1508 17.349 27.2325 17.4308C27.3143 17.5125 27.376 17.6121 27.4128 17.7217C27.4496 17.8313 27.4605 17.948 27.4446 18.0625C27.4605 18.177 27.4496 18.2937 27.4128 18.4033C27.376 18.5129 27.3143 18.6125 27.2325 18.6942C27.1508 18.776 27.0512 18.8377 26.9416 18.8745C26.832 18.9112 26.7154 18.9221 26.6008 18.9063H18.8508C18.7363 18.9221 18.6197 18.9112 18.5101 18.8745C18.4005 18.8377 18.3009 18.776 18.2191 18.6942C18.1374 18.6125 18.0757 18.5129 18.0389 18.4033C18.0021 18.2937 17.9912 18.177 18.0071 18.0625C17.9912 17.948 18.0021 17.8313 18.0389 17.7217C18.0757 17.6121 18.1374 17.5125 18.2191 17.4308C18.3009 17.349 18.4005 17.2873 18.5101 17.2506C18.6197 17.2138 18.7363 17.2029 18.8508 17.2188Z" fill="url(#paint0_linear_379_1523)"/>
<path id="Vector_3" d="M18.8508 20.0071H26.6008C26.7154 19.9912 26.832 20.0021 26.9416 20.0389C27.0512 20.0757 27.1508 20.1374 27.2325 20.2191C27.3143 20.3009 27.376 20.4005 27.4128 20.5101C27.4496 20.6197 27.4605 20.7363 27.4446 20.8508C27.4605 20.9654 27.4496 21.082 27.4128 21.1916C27.376 21.3012 27.3143 21.4008 27.2325 21.4825C27.1508 21.5643 27.0512 21.626 26.9416 21.6628C26.832 21.6996 26.7154 21.7105 26.6008 21.6946H18.8508C18.7363 21.7105 18.6197 21.6996 18.5101 21.6628C18.4005 21.626 18.3009 21.5643 18.2191 21.4825C18.1374 21.4008 18.0757 21.3012 18.0389 21.1916C18.0021 21.082 17.9912 20.9654 18.0071 20.8508C17.9912 20.7363 18.0021 20.6197 18.0389 20.5101C18.0757 20.4005 18.1374 20.3009 18.2191 20.2191C18.3009 20.1374 18.4005 20.0757 18.5101 20.0389C18.6197 20.0021 18.7363 19.9912 18.8508 20.0071Z" fill="url(#paint1_linear_379_1523)"/>
<path id="Vector_4" d="M18.8508 22.7954H26.6008C26.7154 22.7795 26.832 22.7904 26.9416 22.8272C27.0512 22.864 27.1508 22.9257 27.2325 23.0075C27.3143 23.0892 27.376 23.1888 27.4128 23.2984C27.4496 23.408 27.4605 23.5246 27.4446 23.6392C27.4605 23.7537 27.4496 23.8703 27.4128 23.9799C27.376 24.0895 27.3143 24.1891 27.2325 24.2709C27.1508 24.3526 27.0512 24.4143 26.9416 24.4511C26.832 24.4879 26.7154 24.4988 26.6008 24.4829H18.8508C18.7363 24.4988 18.6197 24.4879 18.5101 24.4511C18.4005 24.4143 18.3009 24.3526 18.2191 24.2709C18.1374 24.1891 18.0757 24.0895 18.0389 23.9799C18.0021 23.8703 17.9912 23.7537 18.0071 23.6392C17.9912 23.5246 18.0021 23.408 18.0389 23.2984C18.0757 23.1888 18.1374 23.0892 18.2191 23.0075C18.3009 22.9257 18.4005 22.864 18.5101 22.8272C18.6197 22.7904 18.7363 22.7795 18.8508 22.7954Z" fill="url(#paint2_linear_379_1523)"/>
<path id="Vector_5" d="M14.7744 25.4416H9.23452C8.69686 25.4416 7.60516 25.037 7.60516 24.5425C7.60516 22.8942 9.07156 21.5457 10.8639 21.5457H13.145C14.9373 21.5457 16.4037 22.8942 16.4037 24.5425C16.4037 25.037 15.3121 25.4416 14.7744 25.4416ZM12.0045 20.7948C10.5647 20.7948 9.39747 19.7214 9.39747 18.3975C9.39747 17.0733 10.5647 16 12.0045 16C13.4443 16 14.6115 17.0733 14.6115 18.3975C14.6115 19.7214 13.4443 20.7948 12.0045 20.7948Z" fill="url(#paint3_linear_379_1523)"/>
</g>
<defs>
<linearGradient id="paint0_linear_379_1523" x1="7" y1="17" x2="15" y2="27" gradientUnits="userSpaceOnUse">
<stop stop-color="white"/>
<stop offset="1" stop-color="#F5E1BD"/>
</linearGradient>
<linearGradient id="paint1_linear_379_1523" x1="7" y1="19.7883" x2="15" y2="29.7883" gradientUnits="userSpaceOnUse">
<stop stop-color="white"/>
<stop offset="1" stop-color="#F5E1BD"/>
</linearGradient>
<linearGradient id="paint2_linear_379_1523" x1="7" y1="22.5767" x2="15" y2="32.5767" gradientUnits="userSpaceOnUse">
<stop stop-color="white"/>
<stop offset="1" stop-color="#F5E1BD"/>
</linearGradient>
<linearGradient id="paint3_linear_379_1523" x1="11" y1="16.2178" x2="14.5" y2="25.7178" gradientUnits="userSpaceOnUse">
<stop stop-color="white"/>
<stop offset="1" stop-color="#F5E1BD"/>
</linearGradient>
</defs>
</svg>
