<svg width="34" height="34" viewBox="0 0 34 34" fill="none" xmlns="http://www.w3.org/2000/svg">
<g id="Frame">
<path id="Vector" d="M32.436 29.342C32.436 29.7726 32.3623 30.175 32.215 30.549C32.0677 30.923 31.858 31.2516 31.586 31.535C31.314 31.8183 30.9967 32.0393 30.634 32.198C30.2713 32.3566 29.8747 32.436 29.444 32.436H4.76C4.32933 32.436 3.92133 32.3566 3.536 32.198C3.15066 32.0393 2.81066 31.8183 2.516 31.535C2.22133 31.2516 1.989 30.923 1.819 30.549C1.649 30.175 1.564 29.7726 1.564 29.342V12.376C1.564 11.5146 1.86433 10.7836 2.465 10.183C3.06566 9.58232 3.79666 9.28198 4.658 9.28198H29.342C30.2033 9.28198 30.9343 9.58232 31.535 10.183C32.1357 10.7836 32.436 11.5146 32.436 12.376V17H24.718C23.8567 17 23.1257 17.2946 22.525 17.884C21.9243 18.4733 21.624 19.1986 21.624 20.06C21.6467 20.6493 21.7713 21.1706 21.998 21.624C22.1793 22.0093 22.4797 22.3606 22.899 22.678C23.3183 22.9953 23.9247 23.154 24.718 23.154H32.436V29.342ZM23.188 20.06C23.188 19.6293 23.3353 19.2666 23.63 18.972C23.9247 18.6773 24.2873 18.53 24.718 18.53C25.1487 18.53 25.5113 18.6773 25.806 18.972C26.1007 19.2666 26.248 19.6293 26.248 20.06C26.248 20.4906 26.1007 20.859 25.806 21.165C25.5113 21.471 25.1487 21.624 24.718 21.624C24.2873 21.624 23.9247 21.471 23.63 21.165C23.3353 20.859 23.188 20.4906 23.188 20.06Z" fill="#BE9C58"/>
<path id="Vector_2" d="M19.4822 15.1071C16.9652 15.4153 14.8379 17.3184 14.274 19.944C14.2041 20.2715 14.1505 20.5831 14.1128 20.8815L16.4504 21.3388C16.4578 21.3388 16.4652 21.3387 16.4723 21.3401C16.5292 21.3513 16.567 21.4074 16.5559 21.4643C16.5484 21.5027 16.522 21.5316 16.4888 21.5428L16.4988 21.5447L11.3654 26.4982L11.3712 26.4683C11.3601 26.5252 11.3039 26.563 11.247 26.5518C11.2058 26.5438 11.1749 26.5126 11.1645 26.4751L8.27053 19.9365L8.28049 19.9384C8.25423 19.9141 8.24071 19.8774 8.24795 19.8405C8.25908 19.7835 8.31522 19.7458 8.37213 19.7569C8.37924 19.7583 8.38608 19.7611 8.39291 19.7639L10.6608 20.2076C10.6995 19.9419 10.7493 19.665 10.8117 19.3759C11.5077 16.1129 14.7731 13.9952 18.0483 14.636C18.5537 14.7334 19.0346 14.8954 19.4822 15.1071ZM8.17408 19.7196L8.17693 19.7202L8.17582 19.7259L8.17408 19.7196ZM16.6667 21.3811L16.663 21.3848L16.6638 21.3806L16.6667 21.3811Z" fill="url(#paint0_linear_371_1398)"/>
<path id="Vector_3" d="M12.376 8.08673H27.812L25.84 4.31273C25.4773 3.90473 25.0467 3.57606 24.548 3.32673C24.1173 3.1454 23.5903 3.03773 22.967 3.00373C22.3437 2.96973 21.6353 3.16806 20.842 3.59873C20.3207 3.87073 19.5953 4.25606 18.666 4.75473C17.7367 5.2534 16.796 5.75206 15.844 6.25073C14.756 6.84006 13.6 7.45206 12.376 8.08673Z" fill="#FBE09F"/>
</g>
<defs>
<linearGradient id="paint0_linear_371_1398" x1="18" y1="13" x2="11" y2="25.5" gradientUnits="userSpaceOnUse">
<stop stop-color="white"/>
<stop offset="1" stop-color="#F5E1BB"/>
</linearGradient>
</defs>
</svg>
