<svg width="20" height="20" viewBox="0 0 20 20" fill="none" xmlns="http://www.w3.org/2000/svg">
<rect width="20" height="20" rx="10" fill="#BE9C58"/>
<g clip-path="url(#clip0_791_1384)">
<path d="M10.0001 4.53125C10.1612 4.53036 10.3208 4.56251 10.4691 4.62571C10.6173 4.68892 10.751 4.78185 10.8619 4.89875L15.156 9.37656C15.4754 9.70906 15.5016 10.0175 15.4272 10.1881C15.3829 10.2851 15.3108 10.3667 15.2201 10.4227C15.1294 10.4788 15.0241 10.5068 14.9176 10.5031H14.0426V14.1563C14.0426 14.8825 13.5241 15.4688 12.8876 15.4688H7.10819C6.47162 15.4688 5.95319 14.8803 5.95319 14.1563V10.5206L5.31225 10.5053H5.07381C4.96827 10.5054 4.86491 10.4753 4.77581 10.4188C4.68671 10.3622 4.61556 10.2815 4.57069 10.1859C4.49631 10.0219 4.52475 9.71344 4.84412 9.38094L9.13819 4.90531C9.2491 4.78794 9.38266 4.69427 9.5308 4.62998C9.67894 4.56568 9.83857 4.5321 10.0001 4.53125M10.0001 3.875C9.75075 3.87468 9.50395 3.92491 9.2746 4.02267C9.04525 4.12042 8.83811 4.26367 8.66569 4.44375L4.37162 8.92375C3.82694 9.48813 3.80725 10.0831 3.97131 10.455C4.06364 10.6621 4.2131 10.8386 4.40218 10.9637C4.59126 11.0889 4.8121 11.1575 5.03881 11.1616H5.29694V14.1563C5.29694 15.25 6.1085 16.125 7.10819 16.125H12.8919C13.8894 16.125 14.7032 15.25 14.7032 14.1563V11.1616H14.9547C15.1831 11.1584 15.4057 11.0897 15.5961 10.9636C15.7865 10.8376 15.9367 10.6595 16.0288 10.4506C16.1929 10.0853 16.1732 9.4925 15.6307 8.91938L11.3344 4.45031C11.163 4.26853 10.9562 4.12373 10.7267 4.02479C10.4972 3.92586 10.2499 3.87488 10.0001 3.875V3.875Z" fill="white"/>
<path d="M9.34664 12.6667C9.28143 12.6667 9.21622 12.6456 9.16363 12.6029L7.09728 10.9312C6.98019 10.8364 6.96687 10.67 7.06783 10.5601C7.1688 10.4502 7.3462 10.4377 7.46329 10.5325L9.33261 12.045L12.5215 9.07656C12.6316 8.97393 12.809 8.97459 12.9184 9.07788C13.0278 9.18117 13.0271 9.34761 12.917 9.45024L9.54437 12.5904C9.48968 12.641 9.41816 12.6667 9.34664 12.6667V12.6667Z" fill="white" stroke="white" stroke-width="0.2"/>
</g>
<defs>
<clipPath id="clip0_791_1384">
<rect width="14" height="14" fill="white" transform="translate(3 3)"/>
</clipPath>
</defs>
</svg>
