<svg width="30" height="30" viewBox="0 0 30 30" fill="none" xmlns="http://www.w3.org/2000/svg">
<g id="Frame">
<path id="Vector" d="M11.1113 17.0562C11.4415 17.4502 11.7882 17.83 12.1505 18.1947C13.4492 19.4948 14.9581 20.5662 16.6135 21.3637C17.706 21.8817 18.607 22.1727 19.5335 22.23C20.2235 22.2662 20.75 22.0612 21.1673 21.6052L21.1828 21.5887C21.3728 21.3637 21.569 21.1655 21.8845 20.8675C22.1083 20.6525 22.2155 20.5465 22.3413 20.4105C22.7395 19.9957 22.7393 19.5587 22.3563 19.176L20.2828 17.1022C19.9203 16.7397 19.5173 16.7455 19.1243 17.1385L17.4448 18.8177L16.7905 18.4672C16.7645 18.4532 16.7405 18.441 16.683 18.4117C16.6394 18.3901 16.596 18.3678 16.553 18.345C16.5405 18.3385 16.396 18.2655 16.3525 18.243C16.2625 18.196 16.1878 18.1545 16.1093 18.1055C15.332 17.6142 14.6143 17.0365 13.9258 16.348C13.5344 15.955 13.1636 15.5419 12.815 15.1105C12.3113 14.4762 11.9615 13.924 11.7063 13.3492L11.4173 12.6987L11.9373 12.2128C12.217 11.9497 12.4906 11.6802 12.7578 11.4045L13.074 11.0883C13.4903 10.672 13.4918 10.2658 13.0845 9.85825L12.072 8.84575C11.9525 8.72767 11.8347 8.60783 11.7188 8.48625C11.6613 8.4284 11.6042 8.37015 11.5475 8.3115C11.4941 8.25626 11.4403 8.20142 11.386 8.147C11.286 8.047 11.2028 7.967 11.052 7.82525L11.0333 7.80725C10.664 7.44125 10.2473 7.44225 9.86226 7.81125L9.85226 7.821L8.56601 9.10725C8.24701 9.42225 8.07101 9.79625 8.03101 10.2425C7.96726 10.979 8.11876 11.709 8.44351 12.5975C8.99876 14.1162 9.84226 15.5282 11.111 17.0562H11.1113ZM7.50451 12.9412C7.26026 12.273 6.93951 11.2543 7.03476 10.1563C7.09601 9.47375 7.37451 8.87825 7.86351 8.3955L9.15501 7.104C9.94401 6.34725 10.9803 6.3465 11.7375 7.097C11.8475 7.2005 11.9638 7.3105 12.0933 7.44C12.2098 7.55625 12.3198 7.67275 12.4363 7.78925C12.5463 7.90575 12.6625 8.02225 12.779 8.13875L13.7915 9.15125C14.5908 9.9505 14.5865 10.9898 13.781 11.7953L13.4648 12.1118C13.1897 12.3953 12.9081 12.6726 12.6203 12.9433C12.839 13.4363 13.1458 13.919 13.5983 14.4888C13.9231 14.8904 14.2685 15.275 14.633 15.641C15.2735 16.2815 15.934 16.8115 16.6435 17.2602C16.7473 17.3247 16.8735 17.386 17.0065 17.4537C17.0908 17.4987 17.1785 17.5407 17.2628 17.5857L18.417 16.4312C19.1965 15.652 20.2328 15.638 20.9898 16.395L23.0635 18.4688C23.8335 19.2388 23.8358 20.2977 23.0628 21.103C22.9057 21.2698 22.7436 21.4319 22.5768 21.589C22.3388 21.814 22.117 22.0292 21.9245 22.2607L21.905 22.2802C21.2785 22.965 20.4588 23.28 19.4813 23.2288C18.1953 23.1493 17.041 22.6733 16.185 22.2675C14.4262 21.4206 12.823 20.2827 11.4433 18.9017C11.0612 18.5172 10.6954 18.1166 10.347 17.7012C9.00551 16.0857 8.10201 14.5758 7.50451 12.9412Z" fill="#BE9C58"/>
<path id="Vector_2" d="M11.0908 15.7805C11.0511 15.7272 11.0225 15.6665 11.0065 15.602C10.9906 15.5374 10.9877 15.4704 10.998 15.4047C11.0083 15.339 11.0315 15.2761 11.0664 15.2195C11.1014 15.163 11.1472 15.1139 11.2013 15.0753C11.2553 15.0367 11.3166 15.0092 11.3814 14.9945C11.4462 14.9798 11.5133 14.9782 11.5788 14.9897C11.6442 15.0013 11.7067 15.0257 11.7626 15.0617C11.8185 15.0977 11.8667 15.1445 11.9043 15.1993C12.6438 16.2343 13.57 17.1603 14.6458 17.9323C14.7535 18.0096 14.8261 18.1265 14.8476 18.2574C14.8692 18.3882 14.8378 18.5223 14.7605 18.63C14.6832 18.7378 14.5663 18.8104 14.4354 18.8319C14.3045 18.8534 14.1705 18.8221 14.0628 18.7448C12.8983 17.909 11.894 16.9048 11.0908 15.7805Z" fill="#BE9C58"/>
</g>
</svg>
