<svg width="18" height="18" viewBox="0 0 18 18" fill="none" xmlns="http://www.w3.org/2000/svg">
<g id="Frame">
<path id="Vector" d="M12.7688 3.29063H6.0188C5.09067 3.29063 4.3313 4.05 4.3313 4.97813V13.6688C4.3313 14.2875 4.83755 14.7938 5.4563 14.7938C5.62505 14.7938 5.7938 14.7656 5.93442 14.6813L9.1688 13.1906L12.9094 14.7375C13.05 14.7938 13.1907 14.8219 13.3313 14.8219C13.5563 14.8219 13.7813 14.7375 13.95 14.625C14.2594 14.4281 14.4563 14.0625 14.4563 13.6969V4.97813C14.4563 4.05 13.6969 3.29063 12.7688 3.29063ZM13.3313 13.6969L9.36567 12.0656C9.30942 12.0375 9.22505 12.0375 9.14067 12.0094C9.0563 12.0094 8.97192 12.0375 8.91567 12.0656L5.4563 13.6688V4.97813C5.4563 4.66875 5.70942 4.41563 6.0188 4.41563H12.7688C13.0782 4.41563 13.3313 4.66875 13.3313 4.97813V13.6969Z" fill="#BE9C58"/>
<path id="Vector_2" d="M11.3625 6.38438H7.42505C7.2563 6.38438 7.1438 6.49688 7.1438 6.66563C7.1438 6.83438 7.2563 6.94688 7.42505 6.94688H11.3625C11.5313 6.94688 11.6438 6.83438 11.6438 6.66563C11.6438 6.49688 11.5313 6.38438 11.3625 6.38438ZM10.6594 8.07188H8.12817C7.95942 8.07188 7.84692 8.18438 7.84692 8.35313C7.84692 8.52188 7.95942 8.63438 8.12817 8.63438H10.6594C10.8282 8.63438 10.9407 8.52188 10.9407 8.35313C10.9407 8.18438 10.8282 8.07188 10.6594 8.07188Z" fill="#BE9C58"/>
</g>
</svg>
