<svg width="14" height="14" viewBox="0 0 14 14" fill="none" xmlns="http://www.w3.org/2000/svg">
<g clip-path="url(#clip0_51_810)">
<path d="M6.99243 2.92386C7.6425 2.92386 8.26594 3.1821 8.72561 3.64176C9.18527 4.10143 9.44351 4.72487 9.44351 5.37494C9.44351 6.025 9.18527 6.64844 8.72561 7.10811C8.26594 7.56778 7.6425 7.82601 6.99243 7.82601C6.34237 7.82601 5.71893 7.56778 5.25926 7.10811C4.79959 6.64844 4.54136 6.025 4.54136 5.37494C4.54136 4.72487 4.79959 4.10143 5.25926 3.64176C5.71893 3.1821 6.34237 2.92386 6.99243 2.92386ZM12.3695 5.37601C12.3695 4.5389 12.174 3.71336 11.7986 2.96512C11.4233 2.21688 10.8784 1.56662 10.2074 1.06611C9.53637 0.565599 8.75777 0.22867 7.93358 0.0821505C7.10939 -0.0643689 6.26237 -0.0164318 5.45997 0.222145C4.65758 0.460721 3.92197 0.883347 3.31171 1.45637C2.70146 2.02939 2.23343 2.73698 1.94489 3.52279C1.65634 4.3086 1.55525 5.15093 1.64967 5.98271C1.74409 6.81448 2.0314 7.61272 2.48874 8.31386L6.51105 13.6769C6.55571 13.7665 6.62446 13.8419 6.70959 13.8946C6.79472 13.9473 6.89286 13.9752 6.99297 13.9752C7.09309 13.9752 7.19122 13.9473 7.27635 13.8946C7.36148 13.8419 7.43024 13.7665 7.4749 13.6769L11.5047 8.31386C12.0475 7.4674 12.3695 6.46155 12.3695 5.37601Z" fill="#BE9C58"/>
</g>
<defs>
<clipPath id="clip0_51_810">
<rect width="14" height="14" fill="white"/>
</clipPath>
</defs>
</svg>
