<svg width="23" height="26" viewBox="0 0 23 26" fill="none" xmlns="http://www.w3.org/2000/svg">
<path d="M12.4653 2.39864L21.6059 11.8702C21.7198 11.9882 21.7996 12.1422 21.8347 12.3123C21.8698 12.4824 21.8587 12.6604 21.8027 12.8232C21.7468 12.986 21.6487 13.1259 21.5212 13.2245C21.3937 13.3232 21.2429 13.376 21.0884 13.376L20.1837 13.375V20.9583C20.1837 21.2428 20.1341 21.5246 20.0378 21.7874C19.9415 22.0503 19.8003 22.2892 19.6223 22.4904C19.4444 22.6916 19.2331 22.8512 19.0005 22.96C18.768 23.0689 18.5187 23.125 18.267 23.125H4.85038C4.59868 23.125 4.34945 23.0689 4.1169 22.96C3.88436 22.8512 3.67307 22.6916 3.49509 22.4904C3.31711 22.2892 3.17593 22.0503 3.07961 21.7874C2.98329 21.5246 2.93371 21.2428 2.93371 20.9583V13.375H2.03001C1.87573 13.3747 1.72513 13.3218 1.59788 13.2232C1.47063 13.1246 1.37265 12.9849 1.31675 12.8223C1.26085 12.6598 1.24963 12.482 1.28455 12.3121C1.31948 12.1422 1.39892 11.9882 1.51251 11.8702L10.6521 2.39864C10.8996 2.14224 11.223 2 11.5587 2C11.8944 2 12.2179 2.14224 12.4653 2.39864ZM7.01813 14.8429C6.83847 15.046 6.73754 15.3215 6.73754 15.6088C6.73754 15.8961 6.83847 16.1716 7.01813 16.3747C8.19747 17.7079 9.79698 18.4568 11.4648 18.4568C13.1326 18.4568 14.7321 17.7079 15.9115 16.3747C16.086 16.1704 16.1826 15.8967 16.1804 15.6127C16.1783 15.3287 16.0775 15.0569 15.8998 14.8561C15.7221 14.6552 15.4817 14.5413 15.2305 14.5388C14.9792 14.5364 14.7371 14.6455 14.5564 14.8429C13.7365 15.7695 12.6246 16.2901 11.4653 16.2901C10.3059 16.2901 9.19404 15.7695 8.37417 14.8429C8.28517 14.7422 8.17948 14.6623 8.06314 14.6077C7.9468 14.5532 7.82209 14.5252 7.69615 14.5252C7.57021 14.5252 7.44551 14.5532 7.32917 14.6077C7.21283 14.6623 7.10713 14.7422 7.01813 14.8429Z" fill="#666666"/>
</svg>
