<svg width="20" height="21" viewBox="0 0 20 21" fill="none" xmlns="http://www.w3.org/2000/svg">
<g id="Frame" clip-path="url(#clip0_51_1341)">
<path id="Vector" d="M9.99996 9.79905L1.84073 1.66485C1.69608 1.52183 1.50061 1.44158 1.29688 1.44158C1.09316 1.44158 0.897684 1.52183 0.753036 1.66485C0.681355 1.7359 0.624471 1.82038 0.585655 1.91343C0.546838 2.00647 0.526855 2.10625 0.526855 2.20703C0.526855 2.3078 0.546838 2.40758 0.585655 2.50063C0.624471 2.59367 0.681355 2.67815 0.753036 2.7492L8.91227 10.8834L0.753036 19.0176C0.609577 19.1618 0.529081 19.3567 0.529081 19.5598C0.529081 19.7629 0.609577 19.9578 0.753036 20.102C0.824308 20.1734 0.909047 20.2301 1.00238 20.2688C1.09571 20.3075 1.1958 20.3274 1.29688 20.3274C1.39797 20.3274 1.49805 20.3075 1.59138 20.2688C1.68472 20.2301 1.76946 20.1734 1.84073 20.102L9.99996 11.9678L18.1592 20.102C18.4553 20.3972 18.9461 20.401 19.2469 20.102C19.3186 20.0309 19.3754 19.9464 19.4143 19.8534C19.4531 19.7603 19.4731 19.6606 19.4731 19.5598C19.4731 19.459 19.4531 19.3592 19.4143 19.2662C19.3754 19.1731 19.3186 19.0887 19.2469 19.0176L11.0876 10.8834L19.2469 2.7492C19.3903 2.605 19.4708 2.41013 19.4708 2.20703C19.4708 2.00393 19.3903 1.80905 19.2469 1.66485C19.1756 1.59339 19.0909 1.53668 18.9975 1.49798C18.9042 1.45928 18.8041 1.43936 18.703 1.43936C18.602 1.43936 18.5019 1.45928 18.4085 1.49798C18.3152 1.53668 18.2305 1.59339 18.1592 1.66485L9.99996 9.79905Z" fill="#333333"/>
</g>
<defs>
<clipPath id="clip0_51_1341">
<rect width="20" height="19.9387" fill="white" transform="translate(0 0.914093)"/>
</clipPath>
</defs>
</svg>
