<svg width="20" height="20" viewBox="0 0 20 20" fill="none" xmlns="http://www.w3.org/2000/svg">
<g id="Frame">
<path id="Vector" d="M18.6925 6.4255C17.148 5.0965 15.4459 4.9965 15.4459 4.9965C9.22465 0.995195 5.03425 4.9965 5.03425 4.9965C2.67445 5.0536 1.28715 6.4255 1.28715 6.4255V10.099C1.01145 10.4767 0.84375 10.9377 0.84375 11.4415V16.4716H3.58975V15.0899H16.3948V16.4716H19.1499V11.4415C19.1499 10.9297 18.9762 10.4626 18.6924 10.082V6.4255H18.6925ZM2.20245 6.7542C3.66125 5.7967 5.16295 5.85389 5.16295 5.85389C10.097 1.70979 15.3458 5.88249 15.3458 5.88249C17.2045 6.13619 18.0577 7.1311 17.7771 6.8828V9.3479C17.4887 9.22087 17.177 9.15514 16.8617 9.1549H15.9102C15.4182 8.1305 14.3749 7.42079 13.1624 7.42079C11.9494 7.42079 10.9062 8.1304 10.4142 9.1549H9.57945C9.08735 8.1305 8.04415 7.42079 6.83125 7.42079C5.61875 7.42079 4.57515 8.1304 4.08355 9.1549H3.13205C2.80005 9.1549 2.48715 9.2286 2.20245 9.3554V6.7542V6.7542ZM14.9065 9.155H11.4182C11.8182 8.6253 12.4474 8.2784 13.1624 8.2784C13.8771 8.2784 14.5064 8.6253 14.9065 9.155ZM8.57565 9.155H5.08745C5.48785 8.6253 6.11665 8.2784 6.83135 8.2784C7.54635 8.2784 8.17565 8.6253 8.57565 9.155ZM18.2348 11.8031V15.557H17.3197V14.1852H2.68375V15.557H1.77835V11.4415H1.75905C1.75905 10.6836 2.37365 10.0695 3.13205 10.0695H16.8617C17.6202 10.0695 18.2347 10.6836 18.2347 11.4415V11.8031H18.2348V11.8031Z" fill="#333333"/>
</g>
</svg>
