<svg width="26" height="32" viewBox="0 0 26 32" fill="none" xmlns="http://www.w3.org/2000/svg">
<g clip-path="url(#clip0_105_1437)">
<path d="M24.1292 24.8049H1.85908C1.60211 24.8052 1.34788 24.742 1.11248 24.6194C0.877079 24.4968 0.665623 24.3174 0.491486 24.0926C0.31735 23.8678 0.184321 23.6024 0.100812 23.3133C0.017303 23.0242 -0.0148684 22.7176 0.00633197 22.413C0.237463 19.1084 1.35307 15.979 3.18937 13.4842C5.02567 10.9894 7.48592 9.26067 10.2089 8.55181C12.0444 8.07835 13.9439 8.07835 15.7794 8.55181C18.5029 9.25906 20.9639 10.9873 22.8002 13.4825C24.6366 15.9776 25.7514 19.1079 25.9808 22.413C26.002 22.7175 25.9699 23.024 25.8864 23.313C25.803 23.602 25.6701 23.8673 25.4961 24.0921C25.322 24.3169 25.1107 24.4963 24.8755 24.619C24.6402 24.7417 24.3861 24.805 24.1292 24.8049ZM25.0861 29.2141H0.998006C0.7517 29.2141 0.515482 29.0977 0.341318 28.8905C0.167154 28.6833 0.0693092 28.4023 0.0693092 28.1093C0.0693092 27.8163 0.167154 27.5353 0.341318 27.3281C0.515482 27.1209 0.7517 27.0045 0.998006 27.0045H25.0861C25.3324 27.0045 25.5686 27.1209 25.7428 27.3281C25.9169 27.5353 26.0148 27.8163 26.0148 28.1093C26.0148 28.4023 25.9169 28.6833 25.7428 28.8905C25.5686 29.0977 25.3324 29.2141 25.0861 29.2141Z" fill="#666666"/>
<path d="M9.47803 11.0024V7.73043C9.47803 6.62101 9.84849 5.55703 10.5079 4.77256C11.1674 3.98808 12.0617 3.54736 12.9943 3.54736C13.9269 3.54736 14.8213 3.98808 15.4807 4.77256C16.1401 5.55703 16.5106 6.62101 16.5106 7.73043V11.0024L15.3845 10.7106C13.8092 10.3067 12.1797 10.3067 10.6044 10.7106L9.47803 11.0024ZM12.9943 8.19825C13.5489 8.19819 14.103 8.23993 14.6532 8.32323V7.73043C14.6532 7.20704 14.4784 6.70508 14.1673 6.33499C13.8562 5.96489 13.4343 5.75697 12.9943 5.75697C12.5543 5.75697 12.1324 5.96489 11.8213 6.33499C11.5102 6.70508 11.3354 7.20704 11.3354 7.73043V8.3215C11.8856 8.23879 12.4397 8.19763 12.9943 8.19825Z" fill="#666666"/>
<path d="M15.3846 10.7107C13.8093 10.3067 12.1798 10.3067 10.6045 10.7107L10.2095 8.55145C12.0449 8.07823 13.9442 8.07823 15.7796 8.55145L15.3846 10.7107Z" fill="#666666"/>
</g>
<defs>
<clipPath id="clip0_105_1437">
<rect width="26" height="30.9304" fill="white" transform="translate(0 0.915527)"/>
</clipPath>
</defs>
</svg>
