<svg width="14" height="14" viewBox="0 0 14 14" fill="none" xmlns="http://www.w3.org/2000/svg">
<g id="Frame">
<path id="Vector" d="M2.77083 3.5H2.1875C2.07147 3.5 1.96019 3.45391 1.87814 3.37186C1.79609 3.28982 1.75 3.17854 1.75 3.0625C1.75 2.94647 1.79609 2.83519 1.87814 2.75315C1.96019 2.6711 2.07147 2.62501 2.1875 2.62501H11.8125C11.9285 2.62501 12.0398 2.6711 12.1219 2.75315C12.2039 2.83519 12.25 2.94647 12.25 3.0625C12.25 3.17854 12.2039 3.28982 12.1219 3.37186C12.0398 3.45391 11.9285 3.5 11.8125 3.5H3.64583V11.2292C3.64583 11.3249 3.66469 11.4197 3.70134 11.5082C3.73798 11.5967 3.79169 11.6771 3.8594 11.7448C3.92711 11.8125 4.00749 11.8662 4.09596 11.9028C4.18443 11.9395 4.27924 11.9583 4.375 11.9583H9.625C9.72076 11.9583 9.81557 11.9395 9.90404 11.9028C9.99251 11.8662 10.0729 11.8125 10.1406 11.7448C10.2083 11.6771 10.262 11.5967 10.2987 11.5082C10.3353 11.4197 10.3542 11.3249 10.3542 11.2292V4.8125C10.3542 4.69647 10.4003 4.58519 10.4823 4.50315C10.5644 4.4211 10.6756 4.375 10.7917 4.375C10.9077 4.375 11.019 4.4211 11.101 4.50315C11.1831 4.58519 11.2292 4.69647 11.2292 4.8125V11.2292C11.2292 12.1151 10.5109 12.8333 9.625 12.8333H4.375C3.48906 12.8333 2.77083 12.1151 2.77083 11.2292V3.5V3.5ZM5.83333 2.04167C5.7173 2.04167 5.60602 1.99558 5.52397 1.91353C5.44193 1.83148 5.39583 1.7202 5.39583 1.60417C5.39583 1.48814 5.44193 1.37686 5.52397 1.29481C5.60602 1.21277 5.7173 1.16667 5.83333 1.16667H8.16667C8.2827 1.16667 8.39398 1.21277 8.47603 1.29481C8.55807 1.37686 8.60417 1.48814 8.60417 1.60417C8.60417 1.7202 8.55807 1.83148 8.47603 1.91353C8.39398 1.99558 8.2827 2.04167 8.16667 2.04167H5.83333V2.04167ZM5.39583 5.97917C5.39583 5.86314 5.44193 5.75186 5.52397 5.66981C5.60602 5.58777 5.7173 5.54167 5.83333 5.54167C5.94937 5.54167 6.06065 5.58777 6.14269 5.66981C6.22474 5.75186 6.27083 5.86314 6.27083 5.97917V9.47917C6.27083 9.5952 6.22474 9.70648 6.14269 9.78853C6.06065 9.87058 5.94937 9.91667 5.83333 9.91667C5.7173 9.91667 5.60602 9.87058 5.52397 9.78853C5.44193 9.70648 5.39583 9.5952 5.39583 9.47917V5.97917ZM7.72917 5.97917C7.72917 5.86314 7.77526 5.75186 7.85731 5.66981C7.93935 5.58777 8.05063 5.54167 8.16667 5.54167C8.2827 5.54167 8.39398 5.58777 8.47603 5.66981C8.55807 5.75186 8.60417 5.86314 8.60417 5.97917V9.47917C8.60417 9.5952 8.55807 9.70648 8.47603 9.78853C8.39398 9.87058 8.2827 9.91667 8.16667 9.91667C8.05063 9.91667 7.93935 9.87058 7.85731 9.78853C7.77526 9.70648 7.72917 9.5952 7.72917 9.47917V5.97917Z" fill="#666666"/>
</g>
</svg>
