<svg width="20" height="20" viewBox="0 0 20 20" fill="none" xmlns="http://www.w3.org/2000/svg">
<g id="Frame">
<path id="Vector" d="M9.99996 1.45837C14.7175 1.45837 18.5416 5.28254 18.5416 10C18.5416 14.7175 14.7175 18.5417 9.99996 18.5417C5.28246 18.5417 1.45829 14.7175 1.45829 10C1.45829 5.28254 5.28246 1.45837 9.99996 1.45837ZM9.99996 2.70837C5.97288 2.70837 2.70829 5.97296 2.70829 10C2.70829 14.0271 5.97288 17.2917 9.99996 17.2917C14.027 17.2917 17.2916 14.0271 17.2916 10C17.2916 5.97296 14.027 2.70837 9.99996 2.70837V2.70837Z" fill="#333333"/>
<path id="Vector_2" d="M10.625 2.91663H9.37504V4.99996H10.625V2.91663ZM15 9.16663V10.4166H17.0834V9.16663H15ZM10.625 15H9.37504V17.0833H10.625V15ZM2.91671 9.16663V10.4166H5.00004V9.16663H2.91671Z" fill="#333333"/>
<path id="Vector_3" d="M10.2657 6.10684L10.2657 10.0491C10.2657 10.1279 10.3119 10.1993 10.3838 10.2315L13.1414 11.4701C13.2766 11.5234 13.3601 11.6532 13.3425 11.7864C13.3408 11.7987 13.3372 11.8106 13.3319 11.8218C13.2743 11.9442 13.1495 12.0187 13.0213 12.0034C13.0071 12.0017 12.9934 11.9971 12.9803 11.9914L9.8205 10.6212C9.74739 10.5895 9.70007 10.5174 9.70007 10.4377L9.70007 6.07895C9.70007 5.91161 9.8132 5.80005 9.98289 5.80005C10.1526 5.80005 10.2657 5.9395 10.2657 6.10684Z" fill="#333333" stroke="#333333" stroke-width="0.7"/>
</g>
</svg>
