<svg width="12" height="12" viewBox="0 0 12 12" fill="none" xmlns="http://www.w3.org/2000/svg">
<g id="Frame">
<path id="Vector" d="M6 2.25C7.83338 2.25 9.469 3.407 10.9033 5.66725C10.9665 5.76672 11 5.88214 11 6C11 6.11786 10.9665 6.23328 10.9033 6.33275C9.469 8.593 7.83338 9.75 6 9.75C4.16663 9.75 2.531 8.593 1.09675 6.33275C1.03353 6.23328 0.999962 6.11786 0.999962 6C0.999962 5.88214 1.03353 5.76672 1.09675 5.66725C2.531 3.407 4.16663 2.25 6 2.25ZM6 3.75C4.75738 3.75 3.75 4.75738 3.75 6C3.75 7.24262 4.75738 8.25 6 8.25C7.24263 8.25 8.25 7.24262 8.25 6C8.25 4.75738 7.24263 3.75 6 3.75ZM6 7.5C6.82838 7.5 7.5 6.82837 7.5 6C7.5 5.17162 6.82838 4.5 6 4.5C5.17163 4.5 4.5 5.17162 4.5 6C4.5 6.82837 5.17163 7.5 6 7.5Z" fill="white"/>
</g>
</svg>
