<svg width="30" height="30" viewBox="0 0 30 30" fill="none" xmlns="http://www.w3.org/2000/svg">
<g id="Frame">
<path id="Vector" d="M10.0781 18.5155C9.79686 18.8436 9.65624 19.0311 9.60936 19.078C9.18749 19.5468 9.18749 19.9218 9.65624 20.203C9.98436 20.3436 10.2656 20.2499 10.5469 20.0155C10.5937 19.9686 10.6875 19.828 10.8281 19.6405C11.1562 19.3124 11.3437 19.1718 11.4375 19.1718C11.4844 19.1718 11.5781 19.2186 11.7187 19.3593C12.5156 20.0624 13.5469 20.3905 14.7656 20.3905H20.0625C20.4375 20.3436 20.625 20.1093 20.625 19.6874C20.5781 19.3593 20.3906 19.1718 20.0156 19.1718H15.375C13.1719 19.1718 12.0469 18.6561 12.0469 17.578V14.6249C12.1875 13.9218 11.8594 13.5936 11.25 13.5936H10.0312C9.60936 13.6405 9.37499 13.8749 9.32811 14.2968C9.32811 14.7655 9.51561 15.0468 9.89061 15.0468H10.5937L10.7344 15.1874V17.8124C10.7344 17.8124 10.5 18.0936 10.0781 18.5155V18.5155ZM10.5937 9.70301C10.125 9.56238 9.79686 9.60926 9.51561 9.89051C9.32811 10.2655 9.42186 10.5468 9.74999 10.7811C10.2656 11.1093 10.8281 11.4843 11.3906 11.9061C11.7187 12.1874 12 12.1405 12.3281 11.7655C12.5156 11.3905 12.4687 11.0624 12.1406 10.7343C11.6719 10.3124 11.1094 9.98426 10.5937 9.70301V9.70301Z" fill="#BE9C58"/>
<path id="Vector_2" d="M14.6719 11.2031C16.4532 11.2031 18.1407 11.1562 19.7344 11.0156C20.1094 10.9687 20.2969 10.6875 20.2969 10.2187C20.2032 9.84375 19.9219 9.65625 19.5 9.65625C17.2032 9.79688 15.3282 9.89062 13.9688 9.89062C13.2657 9.89062 12.9844 10.2188 12.9844 10.875V13.125C12.9375 14.625 12.75 16.0781 12.4219 17.5313C12.3282 18 12.4688 18.3281 12.8438 18.4688C13.2657 18.5156 13.5469 18.2812 13.7344 17.8594C14.0625 16.7344 14.25 15.2812 14.25 13.3594H18.0938C18.2344 13.4062 18.2813 13.4531 18.2344 13.5937C18.0469 14.2031 17.7657 14.7187 17.4375 15.1406C16.8282 14.6719 16.3594 14.3906 16.0313 14.2031C15.5625 14.0625 15.1875 14.1094 14.9063 14.3438C14.625 14.7188 14.7188 15 15.0938 15.2812C15.7969 15.7969 16.2657 16.125 16.4532 16.3125C16.1719 16.5937 15.6094 17.0156 14.8125 17.4844C14.6719 17.625 14.5313 17.6719 14.5313 17.6719C14.1563 17.9531 14.0157 18.2344 14.2032 18.6094C14.4375 18.8906 14.7657 18.9844 15.2813 18.7969C15.8438 18.6094 16.6875 18.0469 17.7188 17.2031C17.9532 17.4375 18.2813 17.7188 18.7032 18.1406C18.8907 18.2813 19.0782 18.4219 19.1719 18.5156C19.5469 18.8437 19.875 18.8437 20.2032 18.5625C20.4844 18.2344 20.4844 17.8594 20.2032 17.4375C19.9688 17.1563 19.4532 16.6875 18.7032 16.0313C19.1719 15.2813 19.5938 14.3906 19.8751 13.3594C20.1563 12.4687 19.7813 12 18.75 12.0469H14.3438V11.4844C14.3438 11.25 14.4375 11.2031 14.6719 11.2031V11.2031Z" fill="#BE9C58"/>
<path id="Vector_3" d="M15 3.51562C8.67188 3.51562 3.51562 8.67188 3.51562 15C3.51562 15.2344 3.65625 15.4687 3.84375 15.6094C4.07812 15.75 4.3125 15.75 4.54687 15.6094L7.82813 13.7344C8.15625 13.5469 8.29687 13.125 8.10937 12.7969C7.92187 12.4687 7.5 12.3281 7.17188 12.5156L5.01562 13.7344C5.625 8.76562 9.89063 4.92188 15 4.92188C20.5781 4.92188 25.0781 9.42188 25.0781 15C25.0781 20.5781 20.5781 25.0781 15 25.0781C11.6719 25.0781 8.57812 23.4375 6.65625 20.6719C6.42187 20.3437 6 20.25 5.67188 20.4844C5.34375 20.7188 5.25 21.1406 5.48437 21.4687C7.64062 24.6094 11.1562 26.4844 14.9531 26.4844C21.2812 26.4844 26.4375 21.3281 26.4375 15C26.4375 8.67188 21.3281 3.51562 15 3.51562Z" fill="#BE9C58"/>
</g>
</svg>
