<svg width="33" height="33" viewBox="0 0 33 33" fill="none" xmlns="http://www.w3.org/2000/svg">
<g id="Frame">
<path id="Rectangle 159" d="M16.5 22C16.5 18.4101 19.4101 15.5 23 15.5V15.5C26.5899 15.5 29.5 18.4101 29.5 22V25.5C29.5 27.1569 28.1569 28.5 26.5 28.5H23C19.4101 28.5 16.5 25.5899 16.5 22V22Z" fill="#F5C76B"/>
<path id="Vector" d="M20.1736 28H7.37953C5.83867 28 4.62999 26.7895 4.62999 25.3366V7.66185C4.62999 6.16887 5.88053 5 7.38059 5H25.6314C27.1733 5 28.3817 6.21053 28.3817 7.66316V20.0504C28.3817 20.5346 27.9651 20.9381 27.4652 20.9381C26.9654 20.9381 26.5484 20.5346 26.5484 20.0504V7.66185C26.5484 7.17764 26.1315 6.77413 25.6314 6.77413H7.38059C6.88048 6.77413 6.46381 7.17764 6.46381 7.66185V25.3366C6.46381 25.8208 6.88048 26.2246 7.38059 26.2246H20.1747C20.6745 26.2246 21.0912 26.6281 21.0912 27.1123C21.0912 27.5965 20.6745 28 20.1747 28H20.1736Z" fill="#333333"/>
<path id="Vector_2" d="M5.54703 22.6194C5.29698 22.6194 5.08878 22.5378 4.9219 22.3338C4.54708 21.968 4.54708 21.3956 4.92137 21.069L9.4642 16.5815C10.2975 15.7656 11.5475 15.5617 12.6312 16.092L17.5483 18.5398C17.8816 18.703 18.3401 18.6622 18.5901 18.3766L26.799 10.2583C27.1741 9.89121 27.7158 9.89121 28.0909 10.2583C28.466 10.6255 28.466 11.1966 28.0909 11.5229L19.9233 19.6412C19.09 20.4571 17.84 20.661 16.7566 20.1307L11.7976 17.6832C11.4644 17.52 11.0059 17.5608 10.7558 17.8463L6.21376 22.3338C6.00555 22.5378 5.79709 22.6194 5.54703 22.6194ZM12.7562 13.6444C11.2559 13.6444 10.0475 12.4612 10.0475 10.9926C10.0475 9.52408 11.2559 8.34082 12.7562 8.34082C14.2566 8.34082 15.4639 9.52408 15.4639 10.9926C15.4639 12.4612 14.2563 13.6444 12.7562 13.6444ZM12.5478 9.9728C12.0892 9.9728 11.7142 10.3399 11.7142 10.7887C11.7142 11.2374 12.0892 11.6045 12.5478 11.6045C13.0063 11.6045 13.3811 11.2374 13.3811 10.7887C13.3811 10.3399 13.006 9.9728 12.5478 9.9728Z" fill="#333333"/>
<path id="Vector_3" d="M23.7989 28.3295C23.3404 28.3295 22.9653 27.9216 22.9653 27.432V21.885C22.9653 21.3955 23.3404 20.9873 23.7989 20.9873C24.2574 20.9873 24.6322 21.3955 24.6322 21.885V27.3923C24.6322 27.9221 24.2572 28.3295 23.7989 28.3295Z" fill="#333333"/>
<path id="Vector_4" d="M27.466 24.2511C27.2575 24.2511 27.0075 24.1695 26.8409 24.0064L23.7989 21.273L20.7569 24.0077C20.3818 24.334 19.7983 24.334 19.4651 23.9669C19.1318 23.5998 19.1318 23.0694 19.5066 22.7431L22.7155 19.8452C22.9653 19.5189 23.3822 19.3557 23.7989 19.3557C24.2156 19.3557 24.6322 19.5189 24.8823 19.8452L28.0909 22.7418C28.1773 22.8173 28.2474 22.9098 28.2966 23.0135C28.3458 23.1172 28.3733 23.2299 28.3772 23.3446C28.3811 23.4594 28.3614 23.5737 28.3193 23.6805C28.2772 23.7873 28.2136 23.8843 28.1325 23.9656C27.9659 24.1695 27.7158 24.2511 27.466 24.2511V24.2511Z" fill="#333333"/>
</g>
</svg>
