<svg width="33" height="33" viewBox="0 0 33 33" fill="none" xmlns="http://www.w3.org/2000/svg">
<g id="Frame">
<rect id="Rectangle 160" x="9" y="11" width="16" height="16" rx="8" fill="#F5C76B"/>
<path id="Vector" d="M25.7589 18.1743C25.5264 18.1743 25.2941 18.0856 25.1167 17.9083L22.4322 15.2238C22.0775 14.8691 22.0775 14.2941 22.4322 13.9394C22.7869 13.5847 23.362 13.5847 23.7166 13.9394L25.7589 15.9817L27.8013 13.9394C28.156 13.5847 28.731 13.5847 29.0856 13.9394C29.4403 14.2941 29.4403 14.8691 29.0856 15.2238L26.4011 17.9083C26.2238 18.0856 25.9913 18.1743 25.7589 18.1743V18.1743Z" fill="#333333"/>
<path id="Vector_2" d="M15.2128 28.0645C13.652 28.0645 12.1374 27.7586 10.7111 27.1553C9.33391 26.5728 8.09727 25.7391 7.03549 24.6773C5.97374 23.6155 5.14001 22.3789 4.55749 21.0017C3.95423 19.5754 3.64835 18.0608 3.64835 16.5C3.64835 14.9392 3.95423 13.4246 4.55752 11.9983C5.14004 10.6211 5.97374 9.38447 7.03552 8.32269C8.0973 7.26094 9.33394 6.42724 10.7111 5.84472C12.1374 5.24143 13.652 4.93555 15.2128 4.93555C16.7736 4.93555 18.2882 5.24143 19.7145 5.84472C21.0917 6.42721 22.3283 7.26091 23.3901 8.32269C24.4519 9.38447 25.2856 10.6211 25.8681 11.9983C26.4714 13.4246 26.7773 14.9392 26.7773 16.5C26.7773 17.0016 26.3706 17.4082 25.869 17.4082C25.3675 17.4082 24.9608 17.0016 24.9608 16.5C24.9608 13.8962 23.9469 11.4482 22.1057 9.6071C20.2645 7.76596 17.8166 6.75195 15.2128 6.75195C12.609 6.75195 10.1611 7.76593 8.3199 9.6071C6.47873 11.4482 5.46475 13.8962 5.46475 16.5C5.46475 19.1038 6.47873 21.5518 8.3199 23.3929C10.1611 25.234 12.609 26.248 15.2128 26.248C16.9585 26.248 18.6709 25.7814 20.1647 24.8986C21.6161 24.0408 22.8277 22.8151 23.6684 21.3541C23.9185 20.9194 24.4737 20.7697 24.9085 21.0199C25.3433 21.2701 25.4929 21.8253 25.2427 22.2601C24.246 23.9923 22.8096 25.4453 21.0888 26.4624C19.3154 27.5104 17.2835 28.0645 15.2128 28.0645Z" fill="#333333"/>
<path id="Vector_3" d="M13.8815 15.6055C13.6233 15.6055 13.3718 15.4733 13.2303 15.2353L10.5662 10.7549C10.3526 10.3956 10.4707 9.93116 10.8299 9.71752C11.1891 9.50388 11.6536 9.62198 11.8672 9.98123L14.5313 14.4617C14.7449 14.821 14.6268 15.2854 14.2676 15.4991C14.1508 15.5687 14.0174 15.6055 13.8815 15.6055ZM16.5441 15.6055C16.4082 15.6055 16.2748 15.5687 16.1581 15.4991C15.7988 15.2854 15.6807 14.821 15.8943 14.4617L18.5584 9.98123C18.772 9.62195 19.2364 9.50388 19.5958 9.71752C19.955 9.93116 20.0731 10.3956 19.8595 10.7549L17.1954 15.2353C17.0539 15.4733 16.8023 15.6055 16.5441 15.6055V15.6055Z" fill="#333333"/>
<path id="Vector_4" d="M19.2997 16.2109H11.1259C10.7079 16.2109 10.369 15.8721 10.369 15.4541C10.369 15.0361 10.7079 14.6973 11.1259 14.6973H19.2997C19.7177 14.6973 20.0565 15.0361 20.0565 15.4541C20.0565 15.8721 19.7177 16.2109 19.2997 16.2109ZM18.5126 19.3594H11.913C11.495 19.3594 11.1562 19.0205 11.1562 18.6025C11.1562 18.1846 11.495 17.8457 11.913 17.8457H18.5126C18.9306 17.8457 19.2694 18.1846 19.2694 18.6025C19.2694 19.0205 18.9306 19.3594 18.5126 19.3594Z" fill="#333333"/>
<path id="Vector_5" d="M15.2128 23.3886C14.7948 23.3886 14.456 23.0498 14.456 22.6318V16.1201C14.456 15.7021 14.7948 15.3633 15.2128 15.3633C15.6308 15.3633 15.9696 15.7021 15.9696 16.1201V22.6318C15.9696 23.0498 15.6308 23.3886 15.2128 23.3886Z" fill="#333333"/>
</g>
</svg>
