<svg width="33" height="33" viewBox="0 0 33 33" fill="none" xmlns="http://www.w3.org/2000/svg">
<g id="Frame">
<path id="Subtract" fill-rule="evenodd" clip-rule="evenodd" d="M22 14C23.0609 14 24.0736 14.2065 25 14.5815V27H15.7546C14.6567 25.6304 14 23.8919 14 22C14 17.5817 17.5817 14 22 14Z" fill="#F5C76B"/>
<path id="Vector" d="M20.6205 5.00072H8.62346C7.7998 5.00072 7.12994 5.66914 7.12994 6.49064V26.5094C7.12994 27.3316 7.7998 27.9993 8.62274 27.9993H24.3773C25.2002 27.9993 25.87 27.3309 25.87 26.5079V10.4932L20.6205 5V5.00072ZM20.333 6.54958L24.1437 10.5371H20.5471C20.4293 10.5371 20.333 10.4408 20.333 10.3229V6.54958ZM24.3773 26.7221H8.62274C8.50415 26.7221 8.40784 26.6265 8.40784 26.5094V6.49064C8.40784 6.37349 8.50487 6.2779 8.62346 6.2779H19.0551V10.3229C19.0551 11.1458 19.7242 11.815 20.5471 11.815H24.5921V26.5086C24.5921 26.6265 24.4951 26.7221 24.3773 26.7221V26.7221Z" fill="#333333"/>
<path id="Vector_2" d="M21.3981 15.6487H11.6019C11.249 15.6487 10.9629 15.9347 10.9629 16.2876C10.9629 16.6405 11.249 16.9266 11.6019 16.9266H21.3981C21.751 16.9266 22.0371 16.6405 22.0371 16.2876C22.0371 15.9347 21.751 15.6487 21.3981 15.6487V15.6487Z" fill="#333333"/>
<path id="Vector_3" d="M17.9906 19.4817H11.6019C11.249 19.4817 10.9629 19.7677 10.9629 20.1206C10.9629 20.4735 11.249 20.7596 11.6019 20.7596H17.9906C18.3435 20.7596 18.6296 20.4735 18.6296 20.1206C18.6296 19.7677 18.3435 19.4817 17.9906 19.4817Z" fill="#333333"/>
</g>
</svg>
