<svg width="20" height="20" viewBox="0 0 20 20" fill="none" xmlns="http://www.w3.org/2000/svg">
<g id="Frame">
<path id="Vector" d="M19.6155 14.6023C19.425 12.7113 18.2749 11.0602 16.5815 10.2276C17.1601 9.77248 17.594 9.16919 17.841 8.47066C18.1197 7.68039 18.1373 6.84074 17.8939 6.03637C17.6469 5.23552 17.1636 4.54757 16.4898 4.05013C15.8159 3.55268 15.0186 3.28809 14.1789 3.28809C13.8791 3.28809 13.5792 3.32689 13.2546 3.40451L12.983 3.46801L13.17 3.67263C13.4345 3.9584 13.6674 4.27591 13.865 4.6146L13.9143 4.69927L14.0131 4.69574C14.0449 4.69574 14.0766 4.68869 14.1049 4.68516C14.1331 4.68163 14.1578 4.6781 14.1789 4.6781C14.8457 4.6781 15.4737 4.93917 15.9429 5.40839C16.4157 5.88114 16.6732 6.50558 16.6732 7.17237C16.6732 7.83915 16.4157 8.46713 15.9429 8.93988C15.4702 9.41262 14.8457 9.67016 14.1789 9.67016C14.1543 9.67016 14.126 9.66664 14.0907 9.66311C14.0661 9.65958 14.0414 9.65605 14.0167 9.65605L13.9143 9.649L13.865 9.7372C13.6498 10.1112 13.3887 10.4604 13.0853 10.7709L12.7148 11.1519L13.2335 11.0425C13.5122 10.9826 13.7944 10.9543 14.0696 10.9543C16.1793 10.9543 17.9292 12.5384 18.1408 14.6375L18.155 14.7822H19.612V14.6199L19.6155 14.6023V14.6023Z" fill="#333333"/>
<path id="Vector_2" d="M15.6429 16.2992C15.3819 15.516 14.9973 14.7786 14.5034 14.1154C14.0095 13.4486 13.4203 12.87 12.7465 12.3902C12.1503 11.9668 11.5011 11.6281 10.8132 11.3847C11.7445 10.7567 12.4572 9.87827 12.8876 8.83047C13.3603 7.66977 13.4344 6.42087 13.1063 5.21431C12.7782 4.00775 12.0762 2.967 11.0848 2.20849C10.0899 1.44998 8.90453 1.04779 7.65211 1.04779C6.37499 1.05132 5.11903 1.49231 4.12415 2.29316C3.12573 3.09401 2.42367 4.21943 2.14496 5.46832C1.86625 6.71722 2.02148 8.03668 2.5789 9.18327C3.08693 10.2275 3.916 11.0954 4.92852 11.6564C3.61612 12.2596 2.50129 13.2051 1.68986 14.4082C0.807866 15.7065 0.345703 17.22 0.345703 18.7899V18.9522H1.66516V18.7899C1.66516 18.7652 1.66516 18.744 1.66163 18.7229C1.66163 18.7052 1.6581 18.6911 1.6581 18.6805C1.6581 15.1349 4.54045 12.2491 8.08252 12.2455C11.6246 12.2455 14.5069 15.1314 14.5069 18.677C14.5069 18.6911 14.5069 18.7052 14.5034 18.7229C14.5034 18.744 14.4999 18.7652 14.4999 18.7864V18.9487H16.0451V18.7864C16.0451 17.9397 15.9111 17.1 15.6429 16.2992V16.2992ZM11.8821 6.70311C11.8821 9.03862 9.98409 10.9367 7.64858 10.9367C5.31307 10.9367 3.41503 9.03862 3.41503 6.70311C3.41503 4.3676 5.31307 2.46956 7.64858 2.46956C9.98409 2.46956 11.8821 4.3676 11.8821 6.70311V6.70311Z" fill="#333333"/>
</g>
</svg>
