<svg width="20" height="20" viewBox="0 0 20 20" fill="none" xmlns="http://www.w3.org/2000/svg">
<g id="Frame">
<path id="Vector" d="M9.99996 1.45837C14.7175 1.45837 18.5416 5.28254 18.5416 10C18.5416 14.7175 14.7175 18.5417 9.99996 18.5417C5.28246 18.5417 1.45829 14.7175 1.45829 10C1.45829 5.28254 5.28246 1.45837 9.99996 1.45837ZM9.99996 2.70837C5.97288 2.70837 2.70829 5.97296 2.70829 10C2.70829 14.0271 5.97288 17.2917 9.99996 17.2917C14.027 17.2917 17.2916 14.0271 17.2916 10C17.2916 5.97296 14.027 2.70837 9.99996 2.70837V2.70837Z" fill="#333333"/>
<path id="Vector_2" d="M10.625 2.91663H9.37504V4.99996H10.625V2.91663ZM15 9.16663V10.4166H17.0834V9.16663H15ZM10.625 15H9.37504V17.0833H10.625V15ZM2.91671 9.16663V10.4166H5.00004V9.16663H2.91671Z" fill="#333333"/>
<path id="Vector_3" d="M9.99997 5.625C9.8446 5.62501 9.69481 5.68288 9.5798 5.78734C9.46478 5.8918 9.3928 6.03535 9.37789 6.19L9.37497 6.25V10.4167C9.37497 10.9067 9.90914 11.1992 10.3183 10.9546L10.3633 10.9254L13.28 8.84208C13.4111 8.74896 13.5013 8.60888 13.5318 8.45097C13.5622 8.29306 13.5307 8.12948 13.4436 7.99424C13.3566 7.85901 13.2208 7.76253 13.0644 7.72488C12.9081 7.68723 12.7432 7.7113 12.6041 7.79208L12.5533 7.82458L10.625 9.20208V6.25C10.625 6.09463 10.5671 5.94484 10.4626 5.82983C10.3582 5.71481 10.2146 5.64283 10.06 5.62792L9.99997 5.625Z" fill="#333333"/>
</g>
</svg>
