<svg width="12" height="12" viewBox="0 0 12 12" fill="none" xmlns="http://www.w3.org/2000/svg">
<g id="Frame">
<path id="Vector" d="M10.9934 4.52461L8.94257 1.96992C8.7375 1.70859 8.40234 1.54102 8.06601 1.54102H3.92578C3.59062 1.54102 3.27304 1.68984 3.04922 1.96992L0.998434 4.52461C0.644527 4.95352 0.680856 5.5875 1.05468 5.99883L5.21367 10.4004L5.26992 10.4566C5.475 10.643 5.75507 10.7555 6.03398 10.7555H6.07148C6.37031 10.7367 6.64921 10.6254 6.85429 10.4016L10.9195 6.01875C11.3109 5.5875 11.3297 4.95352 10.9934 4.52461V4.52461ZM8.53242 5.775L6.59296 7.88203C6.29414 8.18086 5.8289 8.19961 5.53007 7.91953L5.49257 7.88203L3.47812 5.75625C3.34804 5.60742 3.34804 5.36484 3.49687 5.23359C3.66445 5.08477 3.88828 5.10352 4.03711 5.25234L5.92968 7.25156C5.98593 7.31016 6.07851 7.31016 6.13476 7.25156L7.97226 5.29102C8.12109 5.14219 8.34492 5.12344 8.5125 5.25352C8.6625 5.38242 8.6625 5.625 8.53242 5.775V5.775Z" fill="white"/>
</g>
</svg>
