<svg width="20" height="20" viewBox="0 0 20 20" fill="none" xmlns="http://www.w3.org/2000/svg">
<g id="Frame">
<path id="Vector" d="M18.5352 8.88867L14.8223 5.57617C14.8243 5.56055 14.8243 5.54297 14.8243 5.52734V3.125C14.8243 2.86523 14.6153 2.65625 14.3555 2.65625C14.0957 2.65625 13.8868 2.86523 13.8868 3.125V4.74219L10.2149 1.4668C10.0371 1.30859 9.76956 1.30859 9.58988 1.4668L1.26956 8.88867C1.0762 9.06055 1.05862 9.35742 1.23245 9.55078C1.40433 9.74414 1.7012 9.76172 1.89456 9.58789L2.88089 8.70703V17.9395C2.88089 18.3711 3.2305 18.7207 3.66214 18.7207H16.377C16.8086 18.7207 17.1582 18.3711 17.1582 17.9395V8.91602L17.9102 9.58789C18 9.66797 18.1114 9.70703 18.2227 9.70703C18.3516 9.70703 18.4805 9.6543 18.5723 9.55078C18.7442 9.35742 18.7285 9.06055 18.5352 8.88867ZM16.2207 9.30664V17.7832H3.81839V9.30664L3.81058 7.87891L9.90238 2.44531L16.2207 8.08203V9.30664Z" fill="#333333"/>
<path id="Vector_2" d="M12.8672 9.64453C13.002 9.64453 13.0918 9.53906 13.0918 9.44531C13.0918 8.97852 13.3945 8.83008 13.7578 8.83008C14.2109 8.83008 14.3828 9.02734 14.3828 9.39648C14.3828 9.64062 14.1914 9.81445 13.959 10.0469L12.6934 11.2031C12.6035 11.3027 12.6055 11.3379 12.6055 11.418C12.6055 11.5469 12.6699 11.6113 12.8496 11.6113H14.6973C14.8164 11.6113 14.8984 11.5137 14.8984 11.3691C14.8984 11.2168 14.8301 11.1113 14.6973 11.1113L13.4746 11.1094L14.5176 10.1113C14.7109 9.89648 14.8984 9.63281 14.8984 9.31836C14.8984 8.76563 14.4863 8.33203 13.8457 8.33203C13.0371 8.33203 12.6035 8.84766 12.6035 9.44531C12.6055 9.5293 12.6836 9.64453 12.8672 9.64453V9.64453ZM9.0332 11.3262C8.95313 11.0723 8.80859 10.873 8.60156 10.7227C8.39453 10.5742 8.15625 10.5 7.88672 10.5C7.33398 10.5 6.91406 10.7441 6.62695 11.2344H6.61328V10.5957H5.89844V14.6348H6.61328V12.3379C6.61328 11.9746 6.70312 11.6777 6.88086 11.4434C7.05859 11.209 7.28516 11.0918 7.55859 11.0918C8.15039 11.0918 8.44531 11.4746 8.44531 12.2422V14.6348H9.16016V12.334C9.16016 11.998 9.25391 11.707 9.44141 11.4609C9.62891 11.2168 9.85352 11.0937 10.1172 11.0937C10.4297 11.0937 10.6523 11.1875 10.7891 11.377C10.9258 11.5664 10.9941 11.8789 10.9941 12.3164V14.6348H11.709V12.1445C11.709 11.0488 11.2637 10.502 10.377 10.502C9.7793 10.502 9.33203 10.7773 9.0332 11.3262V11.3262Z" fill="#333333"/>
</g>
</svg>
