<svg width="11" height="11" viewBox="0 0 11 11" fill="none" xmlns="http://www.w3.org/2000/svg">
<g id="Frame">
<path id="Vector" d="M5.86523 7.56143H0.644531C0.290039 7.56143 0 7.27139 0 6.91689V4.08203C0 3.72754 0.290039 3.4375 0.644531 3.4375H5.86523C6.21973 3.4375 6.50977 3.72754 6.50977 4.08203V6.91689C6.50977 7.27139 6.21973 7.56143 5.86523 7.56143Z" fill="#666666"/>
<path id="Vector_2" d="M6.021 10.0042L2.0625 7.56144V3.43751L6.021 0.993664C6.23584 0.861535 6.51299 1.01515 6.51299 1.26759V9.73029C6.51191 9.98273 6.23584 10.1363 6.021 10.0042ZM10.5005 5.98771H8.51318C8.23818 5.98771 8.01367 5.7632 8.01367 5.4882C8.01367 5.2132 8.23818 4.98868 8.51318 4.98868H10.5005C10.7755 4.98868 11 5.2132 11 5.4882C11 5.7632 10.7755 5.98771 10.5005 5.98771ZM9.11689 9.81837L7.71182 8.41329C7.51738 8.21886 7.51738 7.90089 7.71182 7.70646C7.90625 7.51202 8.22422 7.51202 8.41865 7.70646L9.82373 9.11154C10.0182 9.30597 10.0182 9.62394 9.82373 9.81837C9.6293 10.0128 9.31133 10.0128 9.11689 9.81837ZM9.09541 1.20636L7.69033 2.61144C7.4959 2.80587 7.4959 3.12384 7.69033 3.31827C7.88477 3.51271 8.20273 3.51271 8.39717 3.31827L9.80225 1.9132C9.99668 1.71876 9.99668 1.40079 9.80225 1.20636C9.60781 1.01193 9.28984 1.01193 9.09541 1.20636Z" fill="#666666"/>
</g>
</svg>
