<svg width="22" height="22" viewBox="0 0 22 22" fill="none" xmlns="http://www.w3.org/2000/svg">
<g id="Frame">
<path id="Vector" d="M11.055 9.12835C7.9035 9.12835 5.32565 13.2666 5.32565 14.8577C5.32565 18.0092 7.9035 18.0406 11.055 18.0406C14.206 18.0406 16.7838 18.0087 16.7838 14.8577C16.7838 13.2666 14.206 9.12835 11.055 9.12835ZM11.055 16.7679C8.6042 16.7679 6.5989 16.7679 6.5989 14.8577C6.5989 13.9029 8.6042 10.4016 11.055 10.4016C13.5058 10.4016 15.5106 13.9029 15.5106 14.8577C15.5106 17.0858 13.5058 16.7673 11.055 16.7673V16.7679ZM4.466 7.8551C4.22139 7.85467 3.9791 7.90253 3.75303 7.99593C3.52695 8.08934 3.32154 8.22646 3.14858 8.39943C2.97561 8.57239 2.83849 8.7778 2.74508 9.00388C2.65168 9.22995 2.60382 9.47224 2.60425 9.71685C2.60382 9.96146 2.65168 10.2038 2.74508 10.4298C2.83849 10.6559 2.97561 10.8613 3.14858 11.0343C3.32154 11.2072 3.52695 11.3444 3.75303 11.4378C3.9791 11.5312 4.22139 11.579 4.466 11.5786C4.71066 11.5791 4.95301 11.5313 5.17914 11.4379C5.40528 11.3446 5.61076 11.2074 5.78378 11.0345C5.95681 10.8615 6.09398 10.6561 6.18742 10.43C6.28086 10.2038 6.32874 9.96151 6.3283 9.71685C6.32874 9.4722 6.28086 9.22986 6.18742 9.00375C6.09398 8.77764 5.95681 8.57221 5.78378 8.39923C5.61076 8.22626 5.40528 8.08915 5.17914 7.99578C4.95301 7.9024 4.71066 7.8546 4.466 7.8551ZM4.466 10.433C4.37172 10.4338 4.2782 10.4159 4.19092 10.3802C4.10364 10.3446 4.02435 10.2918 3.95768 10.2252C3.89101 10.1585 3.83829 10.0792 3.80262 9.99193C3.76694 9.90465 3.74902 9.81114 3.7499 9.71685C3.7499 9.31535 4.06505 9.00075 4.466 9.00075C4.8675 9.00075 5.18265 9.3159 5.18265 9.71685C5.18361 9.81123 5.16572 9.90485 5.13005 9.99223C5.09437 10.0796 5.04162 10.159 4.97488 10.2257C4.90814 10.2925 4.82876 10.3452 4.74138 10.3809C4.654 10.4166 4.56038 10.4345 4.466 10.4335V10.433ZM17.4999 8.1411C17.2552 8.14067 17.0129 8.18854 16.7868 8.28199C16.5607 8.37543 16.3553 8.5126 16.1823 8.68562C16.0093 8.85865 15.8722 9.06412 15.7788 9.29026C15.6854 9.5164 15.6376 9.75875 15.6382 10.0034C15.6377 10.248 15.6856 10.4903 15.779 10.7164C15.8724 10.9425 16.0095 11.1479 16.1825 11.3208C16.3554 11.4938 16.5609 11.6309 16.7869 11.7243C17.013 11.8177 17.2553 11.8656 17.4999 11.8652C17.7446 11.8657 17.9869 11.8179 18.213 11.7245C18.4392 11.6311 18.6447 11.494 18.8177 11.321C18.9907 11.1481 19.1279 10.9426 19.2213 10.7165C19.3148 10.4904 19.3626 10.2481 19.3622 10.0034C19.3627 9.7587 19.3149 9.5163 19.2215 9.29013C19.1281 9.06396 18.9909 8.85846 18.8179 8.68543C18.6448 8.51239 18.4393 8.37524 18.2132 8.28183C17.987 8.18842 17.7446 8.1406 17.4999 8.1411ZM17.4999 10.7195C17.4056 10.7204 17.3121 10.7025 17.2248 10.6668C17.1375 10.6311 17.0582 10.5784 16.9916 10.5117C16.9249 10.4451 16.8722 10.3658 16.8365 10.2785C16.8008 10.1912 16.7829 10.0977 16.7838 10.0034C16.7838 9.6019 17.099 9.2873 17.4999 9.2873C17.9014 9.2873 18.216 9.60245 18.216 10.0034C18.2169 10.0977 18.199 10.1912 18.1633 10.2785C18.1276 10.3658 18.0749 10.4451 18.0082 10.5117C17.9416 10.5784 17.8623 10.6311 17.775 10.6668C17.6877 10.7025 17.5942 10.7204 17.4999 10.7195ZM14.0624 4.7036C13.8177 4.70317 13.5754 4.75104 13.3493 4.84449C13.1232 4.93793 12.9178 5.0751 12.7448 5.24812C12.5718 5.42115 12.4347 5.62662 12.3413 5.85276C12.2479 6.0789 12.2001 6.32125 12.2007 6.5659C12.2002 6.81051 12.2481 7.0528 12.3415 7.27888C12.4349 7.50495 12.572 7.71036 12.745 7.88333C12.9179 8.05629 13.1234 8.19341 13.3494 8.28682C13.5755 8.38023 13.8178 8.42809 14.0624 8.42765C14.3071 8.42816 14.5494 8.38035 14.7755 8.28698C15.0017 8.1936 15.2072 8.0565 15.3802 7.88352C15.5532 7.71055 15.6904 7.50512 15.7838 7.279C15.8773 7.05289 15.9251 6.81056 15.9247 6.5659C15.9252 6.3212 15.8774 6.07881 15.784 5.85263C15.6906 5.62646 15.5534 5.42096 15.3804 5.24793C15.2073 5.07489 15.0018 4.93774 14.7757 4.84433C14.5495 4.75092 14.3071 4.7031 14.0624 4.7036ZM14.0624 7.282C13.9681 7.28288 13.8746 7.26496 13.7873 7.22929C13.7 7.19361 13.6207 7.1409 13.5541 7.07423C13.4874 7.00755 13.4347 6.92826 13.399 6.84098C13.3633 6.7537 13.3454 6.66019 13.3463 6.5659C13.3463 6.1644 13.6615 5.8498 14.0624 5.8498C14.4639 5.8498 14.7785 6.16495 14.7785 6.5659C14.7794 6.66019 14.7615 6.7537 14.7258 6.84098C14.6901 6.92826 14.6374 7.00755 14.5707 7.07423C14.5041 7.1409 14.4248 7.19361 14.3375 7.22929C14.2502 7.26496 14.1567 7.28288 14.0624 7.282ZM8.62015 4.4176C7.44535 4.4176 6.4713 5.3911 6.4713 6.5659C6.4713 7.74015 7.44535 8.7142 8.62015 8.7142C9.7944 8.7142 10.7685 7.7407 10.7685 6.5659C10.7685 5.3911 9.7944 4.4176 8.62015 4.4176ZM8.62015 7.56855C8.07565 7.56855 7.6175 7.10985 7.6175 6.5659C7.6175 6.0214 8.07565 5.56325 8.62015 5.56325C9.16465 5.56325 9.62225 6.0214 9.62225 6.5659C9.62225 7.1104 9.1641 7.56855 8.62015 7.56855Z" fill="#333333"/>
</g>
</svg>
