<svg width="18" height="18" viewBox="0 0 18 18" fill="none" xmlns="http://www.w3.org/2000/svg">
<g id="Frame">
<path id="Vector" d="M7.59375 9C7.59375 9.37296 7.74191 9.73065 8.00563 9.99437C8.26935 10.2581 8.62704 10.4062 9 10.4062C9.37296 10.4062 9.73065 10.2581 9.99437 9.99437C10.2581 9.73065 10.4062 9.37296 10.4062 9C10.4062 8.62704 10.2581 8.26935 9.99437 8.00563C9.73065 7.74191 9.37296 7.59375 9 7.59375C8.62704 7.59375 8.26935 7.74191 8.00563 8.00563C7.74191 8.26935 7.59375 8.62704 7.59375 9Z" fill="#BE9C58"/>
<path id="Vector_2" d="M16.875 8.4375H16.2838C16.0093 4.85437 13.1456 1.99069 9.5625 1.71619V1.125C9.5625 0.975816 9.50324 0.832742 9.39775 0.727252C9.29226 0.621763 9.14918 0.5625 9 0.5625C8.85082 0.5625 8.70774 0.621763 8.60225 0.727252C8.49676 0.832742 8.4375 0.975816 8.4375 1.125V1.71619C4.85437 1.99069 1.99069 4.85437 1.71619 8.4375H1.125C0.975816 8.4375 0.832742 8.49676 0.727252 8.60225C0.621763 8.70774 0.5625 8.85082 0.5625 9C0.5625 9.14918 0.621763 9.29226 0.727252 9.39775C0.832742 9.50324 0.975816 9.5625 1.125 9.5625H1.71619C1.99069 13.1456 4.85437 16.0093 8.4375 16.2838V16.875C8.4375 17.0242 8.49676 17.1673 8.60225 17.2727C8.70774 17.3782 8.85082 17.4375 9 17.4375C9.14918 17.4375 9.29226 17.3782 9.39775 17.2727C9.50324 17.1673 9.5625 17.0242 9.5625 16.875V16.2838C13.1456 16.0093 16.0093 13.1456 16.2838 9.5625H16.875C17.0242 9.5625 17.1673 9.50324 17.2727 9.39775C17.3782 9.29226 17.4375 9.14918 17.4375 9C17.4375 8.85082 17.3782 8.70774 17.2727 8.60225C17.1673 8.49676 17.0242 8.4375 16.875 8.4375ZM9.5625 15.1588V14.0625C9.5625 13.9133 9.50324 13.7702 9.39775 13.6648C9.29226 13.5593 9.14918 13.5 9 13.5C8.85082 13.5 8.70774 13.5593 8.60225 13.6648C8.49676 13.7702 8.4375 13.9133 8.4375 14.0625V15.1588C5.47425 14.8905 3.1095 12.5258 2.84119 9.5625H3.9375C4.08668 9.5625 4.22976 9.50324 4.33525 9.39775C4.44074 9.29226 4.5 9.14918 4.5 9C4.5 8.85082 4.44074 8.70774 4.33525 8.60225C4.22976 8.49676 4.08668 8.4375 3.9375 8.4375H2.84119C3.1095 5.47425 5.47425 3.1095 8.4375 2.84119V3.9375C8.4375 4.08668 8.49676 4.22976 8.60225 4.33525C8.70774 4.44074 8.85082 4.5 9 4.5C9.14918 4.5 9.29226 4.44074 9.39775 4.33525C9.50324 4.22976 9.5625 4.08668 9.5625 3.9375V2.84119C12.5258 3.11006 14.8905 5.47425 15.1588 8.4375H14.0625C13.9133 8.4375 13.7702 8.49676 13.6648 8.60225C13.5593 8.70774 13.5 8.85082 13.5 9C13.5 9.14918 13.5593 9.29226 13.6648 9.39775C13.7702 9.50324 13.9133 9.5625 14.0625 9.5625H15.1588C14.8905 12.5258 12.5258 14.8905 9.5625 15.1588Z" fill="#BE9C58"/>
</g>
</svg>
