<svg width="16" height="16" viewBox="0 0 16 16" fill="none" xmlns="http://www.w3.org/2000/svg">
<path d="M7.34435 12.5898H8.65573C8.89715 12.5898 9.09285 12.3941 9.09285 12.1527C9.09285 11.9113 8.89715 11.7156 8.65573 11.7156H7.34435C7.10293 11.7156 6.90723 11.9113 6.90723 12.1527C6.90721 12.3941 7.10293 12.5898 7.34435 12.5898Z" fill="white"/>
<path d="M13.4637 1.88023H10.9506V1.44311C10.9506 1.20169 10.7549 1.00598 10.5135 1.00598C10.272 1.00598 10.0763 1.20169 10.0763 1.44311V1.88023H5.92365V1.44311C5.92365 1.20169 5.72795 1.00598 5.48652 1.00598C5.2451 1.00598 5.0494 1.20169 5.0494 1.44311V1.88023H2.53627C1.69012 1.88023 1.00598 2.56523 1.00598 3.41021V5.48652V6.36078V13.464C1.00598 14.3097 1.69111 14.994 2.53627 14.994H13.4637C14.3099 14.994 14.994 14.309 14.994 13.464V6.36078V5.48652V3.41021C14.994 2.56453 14.3089 1.88023 13.4637 1.88023ZM14.1198 13.464C14.1198 13.8266 13.8266 14.1198 13.4637 14.1198H2.53627C2.17361 14.1198 1.88023 13.8265 1.88023 13.464V6.36078H14.1198V13.464ZM14.1198 5.48652H1.88023V3.41021C1.88023 3.04767 2.17334 2.75448 2.53627 2.75448H5.0494V3.41017C5.0494 3.65159 5.2451 3.84729 5.48652 3.84729C5.72795 3.84729 5.92365 3.65159 5.92365 3.41017V2.75448H10.0763V3.41017C10.0763 3.65159 10.272 3.84729 10.5135 3.84729C10.7549 3.84729 10.9506 3.65159 10.9506 3.41017V2.75448H13.4637C13.8264 2.75448 14.1198 3.04771 14.1198 3.41021V5.48652Z" fill="white"/>
<path d="M3.41015 8.65568H4.72153C4.96295 8.65568 5.15865 8.45998 5.15865 8.21856C5.15865 7.97714 4.96295 7.78143 4.72153 7.78143H3.41015C3.16873 7.78143 2.97302 7.97714 2.97302 8.21856C2.97304 8.45998 3.16874 8.65568 3.41015 8.65568Z" fill="white"/>
<path d="M7.34435 8.65568H8.65573C8.89715 8.65568 9.09285 8.45998 9.09285 8.21856C9.09285 7.97714 8.89715 7.78143 8.65573 7.78143H7.34435C7.10293 7.78143 6.90723 7.97714 6.90723 8.21856C6.90721 8.45998 7.10293 8.65568 7.34435 8.65568Z" fill="white"/>
<path d="M11.2784 8.65568H12.5898C12.8312 8.65568 13.0269 8.45998 13.0269 8.21856C13.0269 7.97714 12.8312 7.78143 12.5898 7.78143H11.2784C11.037 7.78143 10.8413 7.97714 10.8413 8.21856C10.8413 8.45998 11.037 8.65568 11.2784 8.65568Z" fill="white"/>
<path d="M3.41015 10.6227H4.72153C4.96295 10.6227 5.15865 10.427 5.15865 10.1856C5.15865 9.94418 4.96295 9.74847 4.72153 9.74847H3.41015C3.16873 9.74847 2.97302 9.94418 2.97302 10.1856C2.97304 10.427 3.16874 10.6227 3.41015 10.6227Z" fill="white"/>
<path d="M7.34435 10.6227H8.65573C8.89715 10.6227 9.09285 10.427 9.09285 10.1856C9.09285 9.94418 8.89715 9.74847 8.65573 9.74847H7.34435C7.10293 9.74847 6.90723 9.94418 6.90723 10.1856C6.90721 10.427 7.10293 10.6227 7.34435 10.6227Z" fill="white"/>
<path d="M11.2784 10.6227H12.5898C12.8312 10.6227 13.0269 10.427 13.0269 10.1856C13.0269 9.94418 12.8312 9.74847 12.5898 9.74847H11.2784C11.037 9.74847 10.8413 9.94418 10.8413 10.1856C10.8413 10.427 11.037 10.6227 11.2784 10.6227Z" fill="white"/>
<path d="M3.41015 12.5898H4.72153C4.96295 12.5898 5.15865 12.3941 5.15865 12.1527C5.15865 11.9113 4.96295 11.7156 4.72153 11.7156H3.41015C3.16873 11.7156 2.97302 11.9113 2.97302 12.1527C2.97304 12.3941 3.16874 12.5898 3.41015 12.5898Z" fill="white"/>
<path d="M11.2784 12.5898H12.5898C12.8312 12.5898 13.0269 12.3941 13.0269 12.1527C13.0269 11.9113 12.8312 11.7156 12.5898 11.7156H11.2784C11.037 11.7156 10.8413 11.9113 10.8413 12.1527C10.8413 12.3941 11.037 12.5898 11.2784 12.5898Z" fill="white"/>
</svg>
