<svg width="14" height="14" viewBox="0 0 14 14" fill="none" xmlns="http://www.w3.org/2000/svg">
<g id="Frame">
<path id="Vector" d="M6.42628 11.0161H7.57373C7.78498 11.0161 7.95622 10.8449 7.95622 10.6336C7.95622 10.4224 7.78498 10.2511 7.57373 10.2511H6.42628C6.21503 10.2511 6.04379 10.4224 6.04379 10.6336C6.04378 10.8448 6.21503 11.0161 6.42628 11.0161Z" fill="#999999"/>
<path id="Vector_2" d="M11.7808 1.64522H9.58176V1.26273C9.58176 1.05149 9.41052 0.880249 9.19928 0.880249C8.98804 0.880249 8.81679 1.05149 8.81679 1.26273V1.64522H5.18319V1.26273C5.18319 1.05149 5.01195 0.880249 4.80071 0.880249C4.58947 0.880249 4.41822 1.05149 4.41822 1.26273V1.64522H2.21923C1.47885 1.64522 0.880234 2.24459 0.880234 2.98395V4.80072V5.56569V11.781C0.880234 12.521 1.47972 13.1198 2.21923 13.1198H11.7808C12.5211 13.1198 13.1198 12.5204 13.1198 11.781V5.56569V4.80072V2.98395C13.1198 2.24398 12.5203 1.64522 11.7808 1.64522ZM12.3548 11.781C12.3548 12.0983 12.0983 12.3548 11.7808 12.3548H2.21923C1.90191 12.3548 1.6452 12.0982 1.6452 11.781V5.56569H12.3548V11.781ZM12.3548 4.80072H1.6452V2.98395C1.6452 2.66673 1.90167 2.41019 2.21923 2.41019H4.41822V2.98391C4.41822 3.19515 4.58947 3.36639 4.80071 3.36639C5.01195 3.36639 5.18319 3.19515 5.18319 2.98391V2.41019H8.81679V2.98391C8.81679 3.19515 8.98804 3.36639 9.19928 3.36639C9.41052 3.36639 9.58176 3.19515 9.58176 2.98391V2.41019H11.7808C12.0981 2.41019 12.3548 2.66676 12.3548 2.98395V4.80072Z" fill="#999999"/>
<path id="Vector_3" d="M2.9839 7.57372H4.13135C4.34259 7.57372 4.51384 7.40247 4.51384 7.19123C4.51384 6.97999 4.34259 6.80875 4.13135 6.80875H2.9839C2.77265 6.80875 2.60141 6.97999 2.60141 7.19123C2.60142 7.40247 2.77267 7.57372 2.9839 7.57372Z" fill="#999999"/>
<path id="Vector_4" d="M6.42628 7.57372H7.57373C7.78498 7.57372 7.95622 7.40247 7.95622 7.19123C7.95622 6.97999 7.78498 6.80875 7.57373 6.80875H6.42628C6.21503 6.80875 6.04379 6.97999 6.04379 7.19123C6.04378 7.40247 6.21503 7.57372 6.42628 7.57372Z" fill="#999999"/>
<path id="Vector_5" d="M9.86863 7.57372H11.0161C11.2273 7.57372 11.3986 7.40247 11.3986 7.19123C11.3986 6.97999 11.2273 6.80875 11.0161 6.80875H9.86863C9.65739 6.80875 9.48615 6.97999 9.48615 7.19123C9.48616 7.40247 9.6574 7.57372 9.86863 7.57372Z" fill="#999999"/>
<path id="Vector_6" d="M2.9839 9.29491H4.13135C4.34259 9.29491 4.51384 9.12367 4.51384 8.91242C4.51384 8.70118 4.34259 8.52994 4.13135 8.52994H2.9839C2.77265 8.52994 2.60141 8.70118 2.60141 8.91242C2.60142 9.12367 2.77267 9.29491 2.9839 9.29491Z" fill="#999999"/>
<path id="Vector_7" d="M6.42628 9.29491H7.57373C7.78498 9.29491 7.95622 9.12367 7.95622 8.91242C7.95622 8.70118 7.78498 8.52994 7.57373 8.52994H6.42628C6.21503 8.52994 6.04379 8.70118 6.04379 8.91242C6.04378 9.12367 6.21503 9.29491 6.42628 9.29491Z" fill="#999999"/>
<path id="Vector_8" d="M9.86863 9.29491H11.0161C11.2273 9.29491 11.3986 9.12367 11.3986 8.91242C11.3986 8.70118 11.2273 8.52994 11.0161 8.52994H9.86863C9.65739 8.52994 9.48615 8.70118 9.48615 8.91242C9.48616 9.12367 9.6574 9.29491 9.86863 9.29491Z" fill="#999999"/>
<path id="Vector_9" d="M2.9839 11.0161H4.13135C4.34259 11.0161 4.51384 10.8449 4.51384 10.6336C4.51384 10.4224 4.34259 10.2511 4.13135 10.2511H2.9839C2.77265 10.2511 2.60141 10.4224 2.60141 10.6336C2.60142 10.8448 2.77267 11.0161 2.9839 11.0161Z" fill="#999999"/>
<path id="Vector_10" d="M9.86863 11.0161H11.0161C11.2273 11.0161 11.3986 10.8449 11.3986 10.6336C11.3986 10.4224 11.2273 10.2511 11.0161 10.2511H9.86863C9.65739 10.2511 9.48615 10.4224 9.48615 10.6336C9.48616 10.8448 9.6574 11.0161 9.86863 11.0161Z" fill="#999999"/>
</g>
</svg>
