<svg width="33" height="33" viewBox="0 0 33 33" fill="none" xmlns="http://www.w3.org/2000/svg">
<g id="Frame">
<path id="Subtract" fill-rule="evenodd" clip-rule="evenodd" d="M21.2078 11.7773C16.7895 11.7773 13.2078 15.3591 13.2078 19.7773V20.7523C13.2078 22.3609 13.6825 23.8585 14.4995 25.1128L16.3906 23.9781L23.8172 27.1609L25.9391 26.6305L26.4437 13.0052C25.21 12.2274 23.749 11.7773 22.1828 11.7773H21.2078Z" fill="#F5C76B"/>
<path id="Vector" d="M25.1625 5H7.8375C7.35198 4.99999 6.88619 5.18715 6.54189 5.52059C6.19759 5.85403 6.00277 6.30664 6 6.77954V26.2113C6.00019 26.5079 6.07606 26.7999 6.22078 27.0608C6.36551 27.3218 6.57456 27.5437 6.82914 27.7064C7.08371 27.8692 7.37583 27.9678 7.67922 27.9933C7.98261 28.0189 8.28777 27.9706 8.56725 27.8528L16.395 24.5443C16.4282 24.5305 16.4639 24.5234 16.5 24.5234C16.5361 24.5234 16.5718 24.5305 16.605 24.5443L24.4327 27.8426C24.7114 27.96 25.0156 28.0084 25.3182 27.9834C25.6207 27.9583 25.9122 27.8606 26.1665 27.699C26.4208 27.5374 26.63 27.317 26.7755 27.0574C26.9209 26.7978 26.9981 26.5071 27 26.2113V6.77954C26.9972 6.30664 26.8024 5.85403 26.4581 5.52059C26.1138 5.18715 25.648 4.99999 25.1625 5V5ZM25.425 26.2113C25.4252 26.2539 25.4144 26.2958 25.3937 26.3332C25.3731 26.3707 25.3432 26.4025 25.3067 26.4259C25.2702 26.4493 25.2283 26.4634 25.1848 26.467C25.1413 26.4706 25.0975 26.4636 25.0575 26.4466L17.2297 23.1432C16.9994 23.0461 16.751 22.996 16.5 22.996C16.249 22.996 16.0006 23.0461 15.7702 23.1432L7.9425 26.4363C7.90329 26.453 7.86048 26.4601 7.8178 26.457C7.77512 26.4539 7.73387 26.4407 7.69763 26.4185C7.6614 26.3964 7.63128 26.3659 7.60991 26.3298C7.58853 26.2936 7.57655 26.253 7.575 26.2113V6.77954C7.575 6.74597 7.58179 6.71272 7.59498 6.6817C7.60817 6.65068 7.62751 6.62249 7.65188 6.59875C7.67626 6.57501 7.7052 6.55617 7.73705 6.54332C7.76889 6.53047 7.80303 6.52386 7.8375 6.52386H25.1625C25.197 6.52386 25.2311 6.53047 25.263 6.54332C25.2948 6.55617 25.3237 6.57501 25.3481 6.59875C25.3725 6.62249 25.3918 6.65068 25.405 6.6817C25.4182 6.71272 25.425 6.74597 25.425 6.77954V26.2113Z" fill="#333333" stroke="#333333" stroke-width="0.2"/>
<path id="Vector_2" d="M20.2059 14.1294H17.2941V10.8824C17.2941 10.6483 17.2105 10.4239 17.0615 10.2584C16.9126 10.093 16.7106 10 16.5 10C16.2894 10 16.0874 10.093 15.9385 10.2584C15.7895 10.4239 15.7059 10.6483 15.7059 10.8824V14.1176H12.7941C12.5835 14.1176 12.3815 14.2106 12.2326 14.3761C12.0837 14.5416 12 14.766 12 15C12 15.234 12.0837 15.4584 12.2326 15.6239C12.3815 15.7894 12.5835 15.8824 12.7941 15.8824H15.7059V19.1176C15.7059 19.3517 15.7895 19.5761 15.9385 19.7416C16.0874 19.907 16.2894 20 16.5 20C16.7106 20 16.9126 19.907 17.0615 19.7416C17.2105 19.5761 17.2941 19.3517 17.2941 19.1176V15.8824H20.2059C20.4165 15.8824 20.6185 15.7894 20.7674 15.6239C20.9163 15.4584 21 15.234 21 15C21 14.766 20.9163 14.5416 20.7674 14.3761C20.6185 14.2106 20.4165 14.1176 20.2059 14.1176V14.1294Z" fill="#333333"/>
</g>
</svg>
