<svg width="24" height="24" viewBox="0 0 24 24" fill="none" xmlns="http://www.w3.org/2000/svg">
<path d="M20.769 3.99965C20.769 2.34205 19.4429 1 17.8062 1H5.95246C4.31573 1 2.98842 2.34205 2.98842 3.99965L2 18.9991C2 20.6567 3.32608 22 4.96404 22H18.7946C20.4313 22 21.7588 20.6567 21.7588 18.9991L20.769 3.99965ZM17.4673 5.07157C17.4673 6.54868 16.8988 7.93861 15.8662 8.98351C14.8348 10.0284 13.462 10.6043 12.0021 10.6043C10.5422 10.6043 9.16944 10.0284 8.13682 8.98351C7.10542 7.93861 6.53692 6.54868 6.53692 5.07157V5.0556L7.8802 5.05806V5.07525C7.88265 7.37379 9.73057 9.24382 12.0021 9.24382C14.2736 9.24382 16.1216 7.37379 16.1228 5.07525V5.05929L17.4673 5.05315V5.07157Z" fill="#666666"/>
</svg>
