<svg width="18" height="18" viewBox="0 0 18 18" fill="none" xmlns="http://www.w3.org/2000/svg">
<g id="Frame">
<path id="Vector" d="M16.4222 15.5503L12.9777 12.2267L13.01 12.1862C13.9375 11.0377 14.4484 9.59161 14.4484 8.1152C14.4484 4.53425 11.535 1.62054 7.95484 1.62054C4.37363 1.62054 1.45963 4.53425 1.45963 8.1152C1.45963 11.6961 4.37363 14.6096 7.95484 14.6096C9.52397 14.6096 11.04 14.0392 12.2235 13.0049L12.2624 12.971L15.6986 16.2574H15.7331L15.7336 16.2859C15.8206 16.3471 15.9185 16.3794 16.0252 16.3794C16.3096 16.3794 16.5403 16.1475 16.5403 15.8642C16.5403 15.7548 16.501 15.6487 16.4222 15.5503ZM7.95482 13.5776C4.94266 13.5776 2.49249 11.1274 2.49249 8.11522C2.49249 5.10334 4.94266 2.65369 7.95482 2.65369C10.9661 2.65369 13.4164 5.10334 13.4164 8.11522C13.4164 11.1274 10.9661 13.5776 7.95482 13.5776Z" fill="white"/>
</g>
</svg>
