<svg width="16" height="16" viewBox="0 0 16 16" fill="none" xmlns="http://www.w3.org/2000/svg">
<g id="Frame">
<path id="Vector" d="M15.1 14.45L11.5 10.9C12.45 9.85 13 8.45 13 6.9C13 3.5 10.25 0.800003 6.89999 0.800003C3.49999 0.800003 0.799988 3.55 0.799988 6.9C0.799988 10.3 3.54999 13 6.89999 13C8.44999 13 9.84999 12.45 10.9 11.5L14.5 15.05C14.65 15.2 14.95 15.2 15.1 15.05C15.3 14.85 15.3 14.6 15.1 14.45ZM1.59999 6.9C1.59999 4 3.94999 1.6 6.89999 1.6C9.84999 1.6 12.2 3.95 12.2 6.9C12.2 8.3 11.65 9.6 10.75 10.55C10.7 10.55 10.7 10.6 10.65 10.6C10.6 10.65 10.6 10.65 10.6 10.7C9.64999 11.6 8.34999 12.15 6.94999 12.15C3.99999 12.2 1.59999 9.8 1.59999 6.9Z" fill="#666666"/>
</g>
</svg>
