<svg width="29" height="29" viewBox="0 0 29 29" fill="none" xmlns="http://www.w3.org/2000/svg">
<path d="M25.2559 21.3252H22.8062V14.9588C22.8062 13.6079 21.7102 12.5091 20.3564 12.5091H17.9067V21.3252H16.9269V7.61247C16.9269 6.53064 16.0489 5.65271 14.9671 5.65271H7.13652C6.05469 5.65271 5.17676 6.53064 5.17676 7.61247V21.3252H3.70693C3.16602 21.3252 2.72705 21.7641 2.72705 22.3051C2.72705 22.846 3.16602 23.2849 3.70693 23.2849H25.2559C25.7968 23.2849 26.2357 22.846 26.2357 22.3051C26.2329 21.7641 25.7939 21.3252 25.2559 21.3252ZM12.8323 8.10242H10.5633V10.15H11.5432V8.10242H12.523V9.0823H11.5432V10.0622H10.5633V9.0823H12.8323V8.10242ZM13.99 18.8755H8.11357C7.84453 18.8755 7.62363 18.6574 7.62363 18.3855C7.62363 18.1136 7.8417 17.8956 8.11357 17.8956H13.99C14.2619 17.8956 14.48 18.1136 14.48 18.3855C14.48 18.6574 14.2619 18.8755 13.99 18.8755ZM13.99 16.4286H8.11357C7.84453 16.4286 7.62363 16.2105 7.62363 15.9386C7.62363 15.6668 7.8417 15.4487 8.11357 15.4487H13.99C14.2619 15.4487 14.48 15.6668 14.48 15.9386C14.48 16.2077 14.2619 16.4286 13.99 16.4286ZM13.99 13.9789H8.11357C7.84453 13.9789 7.62363 13.7608 7.62363 13.4889C7.62363 13.2199 7.8417 12.999 8.11357 12.999H13.99C14.2619 12.999 14.48 13.2171 14.48 13.4889C14.48 13.7608 14.2619 13.9789 13.99 13.9789Z" fill="#666666"/>
</svg>
