<svg width="16" height="16" viewBox="0 0 16 16" fill="none" xmlns="http://www.w3.org/2000/svg">
<g id="Frame">
<path id="Vector" d="M6.55625 5.375L5.18125 6.77501C5.89688 8.36407 7.41563 10.1344 9.17657 10.7297L10.3656 9.54532C10.3656 9.54532 13.1828 10.0375 13.8156 10.3438C14.3656 10.6094 14.5469 11.2 14.4609 11.9281C14.3703 12.7109 13.3438 14.4359 11.4969 14.4547C9.65 14.4734 6.92969 13.0813 4.98125 11.0297C3.03282 8.97501 1.29532 6.37188 1.575 4.1625C1.85157 1.95157 3.77657 1.55625 4.25782 1.52032C4.74532 1.48438 5.13125 1.62657 5.425 1.99063C5.80313 2.46094 6.55625 5.375 6.55625 5.375Z" fill="white"/>
</g>
</svg>
