<svg width="16" height="16" viewBox="0 0 16 16" fill="none" xmlns="http://www.w3.org/2000/svg">
<path d="M7.9924 0.998291C6.20285 0.998291 4.41331 1.67812 3.04365 3.04778C0.314329 5.7771 0.314329 10.216 3.04365 12.9453C4.41331 14.315 6.20285 14.9948 7.9924 14.9948C9.78196 14.9948 11.5715 14.315 12.9412 12.9453C15.6705 10.216 15.6705 5.7771 12.9412 3.04778C11.5715 1.67812 9.78196 0.998291 7.9924 0.998291ZM7.9924 1.69812C8.8122 1.69812 9.61199 1.85808 10.3618 2.158C11.1416 2.47793 11.8414 2.93781 12.4413 3.54765C13.0511 4.1475 13.511 4.84733 13.8309 5.62712C14.1308 6.37693 14.2908 7.17673 14.2908 7.99652C14.2908 8.81632 14.1308 9.61611 13.8309 10.3659C13.511 11.1457 13.0511 11.8455 12.4413 12.4454C11.8414 13.0552 11.1416 13.5151 10.3618 13.835C9.61199 14.135 8.8122 14.2949 7.9924 14.2949C7.17261 14.2949 6.37281 14.135 5.623 13.835C4.84319 13.5151 4.14338 13.0552 3.54353 12.4454C2.93369 11.8455 2.47379 11.1457 2.15388 10.3659C1.85396 9.61611 1.694 8.81632 1.694 7.99652C1.694 7.17673 1.85396 6.37693 2.15388 5.62712C2.47381 4.84731 2.93369 4.1475 3.54353 3.54765C4.14338 2.93781 4.84321 2.47791 5.623 2.158C6.37281 1.85808 7.17261 1.69812 7.9924 1.69812Z" fill="#BE9C58"/>
<path d="M7.99241 10.5359C7.70248 10.5359 7.45255 10.7758 7.45255 11.0758C7.45255 11.3657 7.70249 11.6056 7.99241 11.6056C8.29233 11.6056 8.53227 11.3657 8.53227 11.0758C8.53228 10.7759 8.29233 10.5359 7.99241 10.5359ZM8.00242 4.38745C7.34258 4.38745 6.81271 4.55742 6.41282 4.91732C6.01292 5.26722 5.76299 5.7771 5.68301 6.44693L6.59278 6.55691C6.66277 6.05704 6.83271 5.68713 7.08266 5.45719C7.3326 5.21726 7.64252 5.10728 8.01243 5.10728C8.40232 5.10728 8.73224 5.23724 9.00217 5.49718C9.26211 5.74712 9.39207 6.04705 9.39207 6.39695C9.39207 6.57691 9.35208 6.75687 9.26211 6.91682C9.17214 7.07678 8.97218 7.28673 8.67225 7.55666C8.36233 7.82659 8.15238 8.02655 8.03241 8.1665C7.88245 8.35646 7.76248 8.54641 7.6925 8.73636C7.59252 8.9863 7.54254 9.28623 7.54254 9.62614L7.55253 9.89607H8.39231C8.40231 9.54616 8.42231 9.28623 8.4623 9.13626C8.51228 8.97631 8.57227 8.83634 8.66224 8.71637C8.75221 8.59641 8.93217 8.40645 9.2221 8.15651C9.64199 7.77661 9.93192 7.45668 10.0819 7.19675C10.2219 6.93681 10.3018 6.64688 10.3018 6.33696C10.3018 5.7971 10.0919 5.33721 9.67199 4.9573C9.26209 4.5774 8.70223 4.38745 8.00242 4.38745Z" fill="#BE9C58"/>
</svg>
