<svg width="13" height="13" viewBox="0 0 13 13" fill="none" xmlns="http://www.w3.org/2000/svg">
<g clip-path="url(#clip0_513_1422)">
<path d="M11.276 4.64484L11.2764 4.6449C11.3731 4.6588 11.4542 4.7269 11.4845 4.82042C11.5149 4.9142 11.4895 5.01687 11.4192 5.08557L9.13745 7.30958L9.04333 7.40132L9.06555 7.53087L9.6042 10.6713C9.62084 10.7687 9.58095 10.8667 9.50145 10.9245L9.50118 10.9247C9.4569 10.9569 9.40356 10.9737 9.34964 10.9737C9.30915 10.9737 9.26768 10.9638 9.22928 10.9437L6.40938 9.46094L6.29304 9.39977L6.17669 9.46093L3.35605 10.9439L3.35595 10.9439C3.26855 10.9899 3.16338 10.9823 3.08383 10.9245C3.00438 10.8667 2.96449 10.7688 2.98104 10.6715C2.98105 10.6715 2.98105 10.6715 2.98105 10.6715C2.98106 10.6714 2.98107 10.6714 2.98108 10.6713L3.51973 7.53087L3.54195 7.40132L3.44783 7.30958L1.16587 5.08534L1.16585 5.08532C1.09541 5.01667 1.07004 4.91415 1.10041 4.82042C1.13066 4.7271 1.21124 4.65904 1.30888 4.64484L4.46242 4.18665L4.59249 4.16775L4.65066 4.04989L6.06098 1.19234L6.06101 1.19228C6.10452 1.10406 6.19431 1.04822 6.29264 1.04822C6.39097 1.04822 6.48076 1.10406 6.52427 1.19228L6.5243 1.19234L7.93462 4.04989L7.99279 4.16775L8.12285 4.18665L11.276 4.64484Z" fill="white" stroke="#BE9C58" stroke-width="0.5"/>
</g>
<defs>
<clipPath id="clip0_513_1422">
<rect width="12.5641" height="12.5641" fill="white" transform="translate(0.0769043)"/>
</clipPath>
</defs>
</svg>
