<svg width="13" height="13" viewBox="0 0 13 13" fill="none" xmlns="http://www.w3.org/2000/svg">
<g clip-path="url(#clip0_513_1420)">
<path d="M11.7223 4.74335C11.6626 4.5592 11.5032 4.42492 11.312 4.39744L8.1588 3.93924L6.74848 1.0817C6.66289 0.908154 6.48621 0.798218 6.29264 0.798218C6.09907 0.798218 5.92239 0.908154 5.8368 1.0817L4.42648 3.93924L1.27289 4.39744C1.08129 4.42532 0.922271 4.5592 0.862592 4.74335C0.802912 4.92749 0.852776 5.1293 0.991374 5.26436L3.27333 7.4886L2.73464 10.6292C2.70205 10.8201 2.78019 11.0128 2.93685 11.1267C3.09351 11.2406 3.30081 11.2555 3.47239 11.1652L6.29303 9.68222L9.11328 11.1652C9.18749 11.204 9.26876 11.2237 9.34964 11.2237C9.45487 11.2237 9.56009 11.1911 9.64843 11.1267C9.80509 11.0128 9.88322 10.8201 9.85064 10.6292L9.31195 7.4886L11.5939 5.26436C11.7321 5.1293 11.782 4.92749 11.7223 4.74335Z" fill="#BE9C58"/>
</g>
<defs>
<clipPath id="clip0_513_1420">
<rect width="12.5641" height="12.5641" fill="white" transform="translate(0.0769043)"/>
</clipPath>
</defs>
</svg>
