<svg width="26" height="32" viewBox="0 0 26 32" fill="none" xmlns="http://www.w3.org/2000/svg">
<path d="M23.2602 12.7832C23.9355 12.4842 24.39 11.726 24.39 10.8712V6.70589C24.39 5.57016 23.6182 4.65192 22.6635 4.65192H3.35645C2.40176 4.65192 1.62988 5.57016 1.62988 6.70589V10.9165C1.62988 11.7713 2.08184 12.5265 2.75469 12.8285C3.97852 13.3783 4.84941 14.7858 4.84941 16.4351C4.84941 18.0843 3.97852 19.4918 2.75469 20.0416C2.08184 20.3436 1.62988 21.0988 1.62988 21.9536V25.9165C1.62988 27.0523 2.40176 27.9705 3.35645 27.9705H22.6609C23.6156 27.9705 24.3875 27.0523 24.3875 25.9165V21.9234C24.3875 21.0656 23.933 20.3104 23.2576 20.0114C22.0262 19.4616 21.1502 18.051 21.1502 16.3958C21.1502 14.7405 22.0262 13.3299 23.2602 12.7832ZM17.8494 19.2804C17.8494 19.8181 17.4838 20.253 17.0318 20.253H8.93477C8.48281 20.253 8.11719 19.8181 8.11719 19.2804C8.11719 18.7428 8.48281 18.3078 8.93477 18.3078H17.0318C17.4813 18.3078 17.8494 18.7428 17.8494 19.2804ZM17.857 13.481C17.857 14.0186 17.4914 14.4536 17.0395 14.4536H8.94492C8.49297 14.4536 8.12734 14.0186 8.12734 13.481C8.12734 12.9433 8.49297 12.5084 8.94492 12.5084H17.042C17.4914 12.5084 17.857 12.9433 17.857 13.481Z" fill="#666666"/>
</svg>
