<svg width="14" height="14" viewBox="0 0 14 14" fill="none" xmlns="http://www.w3.org/2000/svg">
<g id="Frame">
<path id="Vector" d="M12.6648 11.6074C13.1315 10.7953 12.873 10.1715 12.0466 9.54743C11.0751 8.81373 10.1256 8.32021 9.44297 9.11075C9.44297 9.11075 8.7185 9.97319 6.58654 7.955C4.10742 5.5918 5.14788 4.75366 5.14788 4.75366C6.0101 3.88683 5.46201 3.24017 4.73889 2.2608C4.01581 1.28145 3.28538 0.971474 2.23675 1.81377C0.216033 3.43697 3.06537 7.24829 4.506 8.73027L4.50594 8.73039C4.50594 8.73039 6.69665 10.9964 8.07521 11.7507L8.81269 12.1631C9.87043 12.7059 11.0585 12.9544 11.895 12.4503C11.895 12.4504 12.2982 12.243 12.6648 11.6074Z" fill="#BE9C58"/>
</g>
</svg>
